<?xml version="1.0" encoding="UTF-8" standalone="no"?>
<!-- Created with Inkscape (http://www.inkscape.org/) -->

<svg
   xmlns:dc="http://purl.org/dc/elements/1.1/"
   xmlns:cc="http://creativecommons.org/ns#"
   xmlns:rdf="http://www.w3.org/1999/02/22-rdf-syntax-ns#"
   xmlns:svg="http://www.w3.org/2000/svg"
   xmlns="http://www.w3.org/2000/svg"
   xmlns:sodipodi="http://sodipodi.sourceforge.net/DTD/sodipodi-0.dtd"
   xmlns:inkscape="http://www.inkscape.org/namespaces/inkscape"
   width="190"
   height="130"
   viewBox="0 0 50.270831 34.395834"
   version="1.1"
   id="svg8"
   inkscape:version="0.92.1 r15371"
   sodipodi:docname="illustration-setting.svg">

  <g
     inkscape:label="Layer 1"
     inkscape:groupmode="layer"
     id="layer1"
     transform="translate(0,-262.60415)">
   
    <path
       style="fill:#fa8750;stroke:none;stroke-width:0.03259857;fill-opacity:1;opacity:1"
       d="m 42.721765,271.91118 -0.263894,-0.0319 0.39304,-0.43857 c 0.352063,-0.39285 0.398463,-0.45877 0.445079,-0.63238 0.03761,-0.14008 0.04304,-0.21311 0.01956,-0.26342 -0.03346,-0.0717 -0.693547,-0.68757 -0.762445,-0.71137 -0.02123,-0.007 -0.127105,0.0119 -0.23527,0.0428 -0.179323,0.0512 -0.233359,0.0914 -0.612897,0.45591 l -0.416234,0.39979 -0.03761,-0.27771 c -0.02068,-0.15274 -0.03837,-0.30758 -0.0393,-0.34409 -8.81e-4,-0.0365 0.170998,-0.31281 0.382057,-0.61401 l 0.383744,-0.54762 0.247888,-0.0553 c 0.165331,-0.0369 0.413163,-0.0564 0.744166,-0.0587 l 0.496281,-0.004 2.513417,-2.55526 c 1.38238,-1.40539 2.650296,-2.70336 2.817592,-2.88437 0.185632,-0.20086 0.339062,-0.33811 0.393701,-0.3522 0.156014,-0.0402 0.420873,3.5e-4 0.530476,0.0813 0.224051,0.16538 0.305697,0.57962 0.156431,0.79369 -0.03962,0.0568 -1.31618,1.36851 -2.836797,2.91486 l -2.764757,2.81154 0.02246,0.38739 c 0.02838,0.48967 -0.04819,1.05387 -0.156597,1.15387 -0.226692,0.2091 -1.019926,0.76969 -1.083402,0.76566 -0.04004,-0.003 -0.191544,-0.019 -0.336687,-0.0365 z m 3.295418,-4.78175 c -0.09754,-0.10433 -0.131368,-0.18877 -0.07561,-0.18877 0.01443,0 0.08648,0.0535 0.160091,0.11875 0.153083,0.13583 0.182514,0.10797 0.03778,-0.0358 -0.08886,-0.0883 -0.126771,-0.18255 -0.07339,-0.18255 0.01246,0 0.07564,0.0536 0.140397,0.11918 0.0655,0.0663 0.12653,0.10441 0.137561,0.0859 0.02034,-0.0341 -0.253269,-0.30465 -0.308128,-0.30465 -0.01679,0 -0.03804,0.0298 -0.04725,0.0664 -0.0092,0.0365 -0.03491,0.0664 -0.05712,0.0664 -0.02221,0 -0.05888,0.0231 -0.08149,0.0514 -0.03487,0.0436 -0.01994,0.0737 0.09814,0.19844 0.07659,0.0809 0.146378,0.13971 0.155077,0.13069 0.0087,-0.009 -0.03003,-0.0654 -0.08605,-0.12534 z m 0.456159,-0.20774 c 0.07156,-0.0742 0.06546,-0.0919 -0.07785,-0.22609 -0.144389,-0.13521 -0.166682,-0.14154 -0.238051,-0.0676 -0.06876,0.0713 -0.02773,0.1329 0.04381,0.0658 0.06935,-0.065 0.107195,-0.0316 0.06239,0.0552 -0.02688,0.0521 -0.01911,0.0812 0.03873,0.14499 0.08517,0.094 0.104067,0.097 0.170972,0.0277 z m 0.0519,-0.26145 c -0.0663,-0.0709 -0.09889,-0.13298 -0.08687,-0.16545 0.02764,-0.0747 0.0613,-0.065 0.165331,0.0476 0.109232,0.11818 0.142801,0.12265 0.219949,0.0292 0.05704,-0.0691 0.05562,-0.0729 -0.07904,-0.21515 -0.130342,-0.13766 -0.140074,-0.14206 -0.196839,-0.0888 -0.04887,0.0459 -0.07102,0.0487 -0.121962,0.0157 -0.0687,-0.0445 -0.08431,-0.009 -0.02377,0.0532 0.02995,0.0311 0.02314,0.0528 -0.03075,0.0979 l -0.06923,0.058 0.148893,0.15689 c 0.08189,0.0863 0.155979,0.14954 0.164643,0.14055 0.0087,-0.009 -0.032,-0.0674 -0.09036,-0.1298 z m 0.337632,-0.34697 c -0.151287,-0.1606 -0.09916,-0.2151 0.06862,-0.0717 0.162517,0.13886 0.205782,0.12835 0.07072,-0.0171 -0.16703,-0.17997 -0.216381,-0.19904 -0.293389,-0.11335 l -0.06488,0.0722 0.155983,0.14292 c 0.189172,0.17333 0.230402,0.16492 0.06295,-0.0129 z m -0.324892,-0.17199 c -0.01031,-0.0173 -0.03239,-0.0227 -0.04907,-0.012 -0.01668,0.0107 -0.0219,0.0336 -0.01158,0.0509 0.01031,0.0173 0.03239,0.0227 0.04907,0.012 0.01668,-0.0107 0.0219,-0.0336 0.01158,-0.0509 z"
       id="path4533"
       inkscape:connector-curvature="0" />
    <path
       style="fill:#fa8750;stroke:none;stroke-width:0.04724703;fill-opacity:1;opacity:1"
       d="m 1.7969713,263.01745 c -0.029,0.31979 -0.160134,0.60242 -0.382852,0.82514 -0.234057,0.23406 -0.47871599,0.33421 -0.86918599,0.35581 l -0.342541,0.0189 v 5.27085 5.27084 l 0.437035,0.43145 c 0.84809599,0.83727 1.76851699,1.48533 2.89387999,2.03753 0.614921,0.30174 1.881286,0.77514 2.073528,0.77514 0.03699,0 0.08691,-0.0865 0.115845,-0.2008 0.121526,-0.47988 0.514585,-0.86397 1.0044,-0.98148 0.799197,-0.19172 1.6018,0.45224 1.6018,1.28519 v 0.22782 h 0.399976 c 1.8611147,0 4.2692517,-0.86544 5.9776897,-2.14826 2.874758,-2.15859 4.389378,-5.31493 4.285765,-8.93117 -0.03244,-1.13231 -0.155121,-1.88732 -0.485309,-2.98681 -0.114519,-0.38133 -0.118721,-0.38741 -0.236741,-0.34254 -0.06608,0.0251 -0.251649,0.0455 -0.41237,0.0452 -0.620272,-10e-4 -1.173336,-0.45393 -1.285719,-1.05298 l -0.03283,-0.17498 H 9.1806273 1.8219113 Z"
       id="path4570"
       inkscape:connector-curvature="0" />
    <path
       id="path4667"
       style="opacity:0.80699983;fill:#fa8750;fill-opacity:1;stroke:none;stroke-width:0.04724703"
       d="m 28.846656,285.93472 -0.01241,1.63918 -0.01241,1.63917 -1.18029,-1.12706 -1.180288,-1.12758 -0.627354,0.65733 -0.62735,0.65732 0.768426,0.73174 c 0.422463,0.40234 0.905965,0.86434 1.07487,1.02681 l 0.307475,0.29507 -3.068545,5.3e-4 c 0.0027,0.008 0.0068,0.0155 0.0088,0.0238 0.0044,0.0182 0.0082,0.0365 0.0083,0.0553 5.29e-4,0.0155 5.29e-4,0.031 -0.0011,0.0465 -0.0013,0.0132 -0.0028,0.0263 -0.0052,0.0393 -0.0019,0.0102 -0.0034,0.0207 -0.0047,0.031 -7.94e-4,0.0105 -0.0013,0.0211 -0.0031,0.0315 -5.29e-4,0.004 -0.0013,0.007 -0.0021,0.0103 h 0.02016 v 0.89761 0.89762 h 1.639692 1.639694 l -0.662493,0.67334 c -0.364469,0.3703 -0.879044,0.89722 -1.143082,1.17099 l -0.480073,0.49765 0.640786,0.63613 0.640789,0.63614 1.152382,-1.18081 1.152385,-1.18132 0.0016,1.64176 0.0011,1.64176 h 0.897102 0.897104 l 0.01241,-1.64176 0.01241,-1.64176 1.181323,1.1467 1.181325,1.14618 0.632002,-0.65009 0.632002,-0.65009 -0.986504,-0.95963 c -0.542581,-0.52766 -1.089051,-1.04288 -1.214395,-1.14515 l -0.227894,-0.18603 1.669151,-0.0124 1.668632,-0.0124 0.01291,-0.88574 0.01291,-0.88625 h -1.668632 -1.668632 l -0.187068,-0.2005 -0.186553,-0.20103 0.203089,0.18914 0.202573,0.18862 1.046446,-1.07952 c 0.575445,-0.59389 1.087861,-1.13286 1.138949,-1.19786 l 0.09302,-0.11834 -0.629936,-0.59738 c -0.346448,-0.32856 -0.647845,-0.59738 -0.669726,-0.59738 -0.02188,0 -0.530096,0.51012 -1.129647,1.13378 -0.599552,0.62366 -1.109613,1.1408 -1.133264,1.1498 -0.02529,0.009 -0.04289,-0.65644 -0.04289,-1.61799 v -1.63401 h -0.897101 z m 0.8847,4.25349 c 0.298165,0.006 0.604856,0.10171 0.829408,0.2868 0.777725,0.64106 0.564923,1.90028 -0.382407,2.2624 -1.188223,0.4542 -2.253737,-0.8732 -1.568379,-1.95389 0.07626,-0.12025 0.155379,-0.21859 0.175699,-0.21859 0.02032,0 0.09555,-0.0542 0.166915,-0.12041 0.19108,-0.17719 0.4806,-0.26199 0.778764,-0.25631 z m 2.039672,2.31355 c 0.01299,0 -0.0808,0.10674 -0.208775,0.23668 -0.127974,0.12992 -0.243325,0.23616 -0.256316,0.23616 -0.01299,0 0.0808,-0.10624 0.208773,-0.23616 0.127989,-0.12994 0.243313,-0.23668 0.256318,-0.23668 z"
       inkscape:connector-curvature="0" />
  </g>
</svg>
