<?xml version="1.0" encoding="UTF-8" standalone="no"?>
<!-- Created with Inkscape (http://www.inkscape.org/) -->

<svg
   xmlns:dc="http://purl.org/dc/elements/1.1/"
   xmlns:cc="http://creativecommons.org/ns#"
   xmlns:rdf="http://www.w3.org/1999/02/22-rdf-syntax-ns#"
   xmlns:svg="http://www.w3.org/2000/svg"
   xmlns="http://www.w3.org/2000/svg"
   xmlns:sodipodi="http://sodipodi.sourceforge.net/DTD/sodipodi-0.dtd"
   xmlns:inkscape="http://www.inkscape.org/namespaces/inkscape"
   width="396.85001"
   height="400"
   viewBox="0 0 104.9999 105.83335"
   version="1.1"
   id="svg8"
   inkscape:version="0.92.1 r15371"
   sodipodi:docname="illustration-pc.svg"
   inkscape:export-filename="C:\Users\DAFF PUNK\Desktop\inkscape\illustration-pc.png"
   inkscape:export-xdpi="96"
   inkscape:export-ydpi="96">

  <g
     inkscape:label="Layer 1"
     inkscape:groupmode="layer"
     id="layer1"
     transform="translate(0,-191.16665)">
    <g
       id="g4579">
      <path
         style="fill:#ff8750;fill-opacity:1;stroke:none;stroke-width:0.26446706;stroke-linecap:round;stroke-linejoin:round;stroke-miterlimit:4;stroke-dasharray:none;stroke-opacity:1"
         d="m 8.7409023,233.19198 c -3.0840446,1.16538 -5.475754,3.49626 -6.4199087,7.21323 -0.9441547,3.71697 -0.4406679,8.81944 1.6678659,12.97734 2.1085337,4.1579 5.8218904,7.37067 10.3535915,9.44958 4.531702,2.0789 9.881598,3.02386 16.081098,3.9688 6.199499,0.94494 13.248896,1.88991 17.497248,3.52779 4.248352,1.63788 5.695994,3.96881 9.78718,6.17375 4.091187,2.20494 10.825632,4.2838 17.245486,4.56727 6.419854,0.28346 12.525096,-1.22848 17.591635,-8.12656 5.066539,-6.89807 9.094782,-19.18278 10.038852,-27.6873 0.94407,-8.50451 -1.19591,-13.22934 -5.790443,-18.647 -4.594533,-5.41767 -11.643875,-11.52846 -19.731594,-15.78074 -8.087718,-4.25229 -17.21398,-6.64618 -23.75971,-6.20526 -6.545729,0.44093 -10.510893,3.71674 -14.287355,7.49662 -3.776461,3.77988 -7.363899,8.06352 -10.605333,11.46541 -3.241434,3.40189 -6.136565,5.92169 -9.47247,7.18169 -3.335904,1.26 -7.112098,1.26 -10.1961427,2.42538 z"
         id="path4590-1"
         inkscape:connector-curvature="0"
         inkscape:path-effect="#path-effect4592-1"
         inkscape:original-d="m 8.0484352,232.0266 c -2.3915856,2.33075 -4.7832917,4.66164 -7.17512791,6.99266 0.50366961,5.10291 1.00715941,10.20538 1.51054431,15.30826 3.7136639,3.21279 7.4270217,6.42556 11.1403314,9.63854 5.349996,0.94482 10.699892,1.88978 16.049638,2.83486 7.049247,0.9448 14.098643,1.88978 21.147757,2.83486 1.447726,2.33072 2.895366,4.66165 4.342852,6.99267 6.734782,2.0788 13.46923,4.15766 20.203653,6.2367 6.105211,-1.51204 12.210452,-3.02399 18.315463,-4.53578 4.028169,-12.28423 8.056404,-24.56895 12.084424,-36.85323 -2.1398,-4.72484 -4.27978,-9.44967 -6.419854,-14.17431 -7.049017,-6.11076 -14.098359,-12.22155 -21.14774,-18.33212 -9.12614,-2.39402 -18.252404,-4.7879 -27.378798,-7.18166 -3.965112,3.27575 -7.930276,6.55156 -11.895615,9.82753 -3.587557,4.28382 -7.174994,8.56746 -10.762701,12.85138 -2.895191,2.51983 -5.790322,5.03963 -8.685673,7.55964 -3.776448,-1.3e-4 -7.552642,-1.3e-4 -11.3291538,0 z" />
      <path
         inkscape:connector-curvature="0"
         id="path4649-7"
         d="m 34.544306,254.27852 c -0.135359,-0.0736 -0.315917,-0.24053 -0.401241,-0.37087 -0.142188,-0.21721 -0.155141,-1.43179 -0.155141,-14.54912 v -14.31217 l -0.01466,-0.57021 c 0.135074,-0.16068 1.462269,-0.0377 1.462269,-0.0377 0.550143,-0.14827 45.888642,-0.18796 46.320396,-0.0391 0.959687,0.0175 0.635312,0.5715 0.758552,0.75496 v 0 l -0.0025,14.23126 c -0.0025,13.23201 -0.01379,14.24941 -0.163154,14.49053 -0.362651,0.58541 1.479152,0.54425 -24.159077,0.5401 -20.005101,-0.003 -23.435019,-0.0232 -23.645421,-0.13767 z"
         style="fill:#ffffff;fill-opacity:1;stroke:#212121;stroke-width:0.66116762;stroke-linecap:round;stroke-linejoin:round;stroke-miterlimit:4;stroke-dasharray:none;stroke-opacity:1"
         sodipodi:nodetypes="cssccccccccccc" />
      <path
         inkscape:connector-curvature="0"
         id="path4651-1"
         d="m 53.629378,258.46912 v -4.29955 h 4.201228 4.201228 v 4.29955 4.29954 h -4.201228 -4.201228 z"
         style="fill:#212121;fill-opacity:1;stroke:none;stroke-width:0.08329929" />
      <path
         inkscape:connector-curvature="0"
         id="path4655-2"
         d="m 45.305763,263.30982 c -0.147073,-0.039 -0.313165,-0.30034 -0.238416,-0.37516 0.01853,-0.0185 1.952569,-0.0337 4.297864,-0.0337 h 4.264167 v -0.33074 -0.33073 h 4.195243 4.195249 l 0.02957,0.30711 0.02957,0.30711 4.27204,0.0246 c 4.16002,0.024 4.272035,0.0294 4.272035,0.20834 0,0.13312 -0.08454,0.19876 -0.306831,0.23826 -0.352899,0.0627 -24.77263,0.048 -25.010518,-0.0151 z"
         style="fill:#333333;stroke:none;stroke-width:0.09445253" />
      <rect
         ry="0.33073404"
         y="226.74924"
         x="36.784832"
         height="1.0866976"
         width="18.598696"
         id="rect4769-87-7"
         style="fill:#212121;fill-opacity:1;fill-rule:evenodd;stroke-width:0.13223353" />
      <rect
         ry="0.33073404"
         y="229.08801"
         x="36.737633"
         height="1.0866976"
         width="18.598696"
         id="rect4769-5-1-1"
         style="fill:#212121;fill-opacity:1;fill-rule:evenodd;stroke-width:0.13223353" />
      <rect
         ry="0.33073404"
         y="231.54489"
         x="36.652657"
         height="1.0866976"
         width="31.296789"
         id="rect4769-4-4-7"
         style="fill:#212121;fill-opacity:1;fill-rule:evenodd;stroke-width:0.17153397" />
      <rect
         ry="0.33073404"
         y="234.616"
         x="39.994759"
         height="1.0866976"
         width="18.598696"
         id="rect4769-0-4-5"
         style="fill:#212121;fill-opacity:1;fill-rule:evenodd;stroke-width:0.13223353" />
      <rect
         ry="0.33073404"
         y="237.68709"
         x="37.209682"
         height="1.0866976"
         width="18.598696"
         id="rect4769-1-0-8"
         style="fill:#212121;fill-opacity:1;fill-rule:evenodd;stroke-width:0.13223353" />
      <rect
         ry="0.33073404"
         y="240.86911"
         x="36.913666"
         height="1.0866976"
         width="10.721288"
         id="rect4769-51-3-5"
         style="fill:#212121;fill-opacity:1;fill-rule:evenodd;stroke-width:0.10039769" />
      <rect
         ry="0.33073404"
         y="243.6931"
         x="37.047169"
         height="1.0866976"
         width="5.7144613"
         id="rect4769-9-6-4"
         style="fill:#212121;fill-opacity:1;fill-rule:evenodd;stroke-width:0.0732973" />
      <rect
         ry="0.33073404"
         y="245.88049"
         x="37.047169"
         height="1.0866976"
         width="36.823544"
         id="rect4769-45-3-1"
         style="fill:#212121;fill-opacity:1;fill-rule:evenodd;stroke-width:0.18606435" />
      <rect
         ry="0.33073404"
         y="248.41959"
         x="43.12212"
         height="1.0866976"
         width="18.598696"
         id="rect4769-8-4-5"
         style="fill:#212121;fill-opacity:1;fill-rule:evenodd;stroke-width:0.13223353" />
      <rect
         ry="0.33073404"
         y="251.09233"
         x="57.541782"
         height="1.0866976"
         width="18.598696"
         id="rect4769-3-2-1"
         style="fill:#212121;fill-opacity:1;fill-rule:evenodd;stroke-width:0.13223353" />
      <path
         inkscape:connector-curvature="0"
         id="path4888-0-5"
         d="m 69.851907,240.45831 c -0.833375,-1.01234 -1.520076,-1.85376 -1.525991,-1.86982 -0.0059,-0.0161 0.539363,-0.94677 1.211742,-2.06825 l 1.222511,-2.03906 0.590712,0.002 c 0.32489,0.001 0.645818,0.0123 0.713172,0.025 l 0.122466,0.0231 -1.17973,2.01874 c -0.64885,1.11031 -1.177672,2.04604 -1.175159,2.07943 0.0025,0.0334 0.663566,0.86115 1.469016,1.83949 0.805445,0.97835 1.471559,1.79032 1.480246,1.80439 0.0087,0.014 -0.305851,0.0256 -0.698979,0.0256 h -0.714781 z"
         style="fill:#ff8750;fill-opacity:1;stroke:none;stroke-width:0.03339401;stroke-opacity:1" />
      <path
         inkscape:connector-curvature="0"
         id="path4888-6-1-4"
         d="m 78.674937,240.61376 c 0.833375,-1.01234 1.520076,-1.85376 1.52599,-1.86982 0.0059,-0.0161 -0.539362,-0.94677 -1.211741,-2.06824 l -1.222512,-2.03906 -0.590717,0.002 c -0.324884,0.001 -0.645812,0.0123 -0.713167,0.025 l -0.12247,0.0231 1.179735,2.01873 c 0.648849,1.11031 1.177672,2.04605 1.175159,2.07943 -0.0025,0.0334 -0.663567,0.86115 -1.469022,1.83949 -0.805439,0.97834 -1.471554,1.79032 -1.480246,1.8044 -0.0087,0.014 0.305857,0.0256 0.698985,0.0256 h 0.714781 z"
         style="fill:#ff8750;fill-opacity:1;stroke:none;stroke-width:0.03339401;stroke-opacity:1" />
      <path
         inkscape:connector-curvature="0"
         id="path4954-1-4"
         d="m 72.87368,243.8458 c -0.242758,-0.0289 -0.407561,-0.0586 -0.40818,-0.0738 -5e-4,-0.014 0.734333,-2.43379 1.633119,-5.37736 l 1.634159,-5.35195 0.367182,0.0425 c 0.201954,0.0234 0.415653,0.0505 0.474895,0.0602 l 0.107704,0.0177 -1.640563,5.36852 c -1.632246,5.34131 -1.640868,5.36851 -1.700864,5.36554 -0.03317,-0.001 -0.243523,-0.0247 -0.467452,-0.0514 z"
         style="fill:#212121;fill-opacity:1;stroke:none;stroke-width:0.02361314" />
      <path
         inkscape:original-d="m 76.853484,263.225 c 0.580581,-0.82498 1.161037,-1.64986 1.741353,-2.47466 0.580326,-0.82479 2.567519,1.64968 3.851076,2.47466"
         inkscape:path-effect="#path-effect5019-7-6-3"
         inkscape:connector-curvature="0"
         id="path5017-5-8"
         d="m 76.853484,263.225 c 0.02239,-0.53235 0.200771,-1.05721 0.507398,-1.49296 0.306626,-0.43575 0.74043,-0.78087 1.233955,-0.9817 0.827464,-0.33671 1.816269,-0.24515 2.567827,0.2378 0.751557,0.48294 1.245704,1.3443 1.283249,2.23686"
         style="fill:#212121;fill-opacity:1;stroke:none;stroke-width:0.10868667px;stroke-linecap:butt;stroke-linejoin:miter;stroke-opacity:1" />
      <text
         id="text5023-6-8"
         y="262.53745"
         x="79.645676"
         style="font-style:normal;font-weight:normal;font-size:0.70524549px;line-height:0.88155687px;font-family:sans-serif;text-align:center;letter-spacing:0px;word-spacing:0px;text-anchor:middle;fill:none;fill-opacity:1;stroke:#ffffff;stroke-width:0.02644671;stroke-linecap:round;stroke-linejoin:round;stroke-miterlimit:4;stroke-dasharray:0.21157364, 0.05289342, 0.02644671, 0.05289342;stroke-dashoffset:0;stroke-opacity:1"
         xml:space="preserve"
         transform="scale(0.99954581,1.0004544)"><tspan
           style="line-height:0.88155687px;text-align:center;text-anchor:middle;fill:none;fill-opacity:1;stroke:#ffffff;stroke-width:0.02644671;stroke-linecap:round;stroke-linejoin:round;stroke-miterlimit:4;stroke-dasharray:0.21157364, 0.05289342, 0.02644671, 0.05289342;stroke-dashoffset:0;stroke-opacity:1"
           y="262.53745"
           x="79.645676"
           id="tspan5021-1-8"
           sodipodi:role="line">martin</tspan></text>
      <path
         inkscape:original-d="m 79.403614,260.56878 c 0.04586,-0.0814 0.09152,-0.16267 0.137067,-0.24391 0.04556,-0.0813 0.25766,0.15901 0.386275,0.23861"
         inkscape:path-effect="#path-effect5027-0-8-6"
         inkscape:connector-curvature="0"
         id="path5025-0-7"
         d="m 79.403614,260.56878 c -0.0025,-0.0491 0.0091,-0.0989 0.03323,-0.14179 0.0241,-0.0429 0.06055,-0.0787 0.103832,-0.10212 0.04027,-0.0218 0.08633,-0.0327 0.132089,-0.0314 0.04576,0.001 0.0911,0.0149 0.130048,0.039 0.03895,0.0241 0.07139,0.0585 0.09306,0.0989 0.02167,0.0403 0.0325,0.0864 0.03107,0.13216"
         style="fill:#e6e6e6;fill-opacity:1;stroke:#212121;stroke-width:0.09103905px;stroke-linecap:butt;stroke-linejoin:miter;stroke-opacity:1" />
    </g>
  </g>
</svg>
