<?xml version="1.0" encoding="UTF-8" standalone="no"?>
<!-- Created with Inkscape (http://www.inkscape.org/) -->

<svg
   xmlns:dc="http://purl.org/dc/elements/1.1/"
   xmlns:cc="http://creativecommons.org/ns#"
   xmlns:rdf="http://www.w3.org/1999/02/22-rdf-syntax-ns#"
   xmlns:svg="http://www.w3.org/2000/svg"
   xmlns="http://www.w3.org/2000/svg"
   xmlns:sodipodi="http://sodipodi.sourceforge.net/DTD/sodipodi-0.dtd"
   xmlns:inkscape="http://www.inkscape.org/namespaces/inkscape"
   width="500"
   height="500"
   viewBox="0 0 132.29166 132.29167"
   version="1.1"
   id="svg8"
   inkscape:version="0.92.1 r15371"
   sodipodi:docname="illustration-technologies.svg">
  <g
     inkscape:label="Layer 1"
     inkscape:groupmode="layer"
     id="layer1"
     transform="translate(0,-164.70832)">
    <path
       id="path4534-65"
       style="fill:#ff8750;fill-opacity:0.90196078;fill-rule:evenodd;stroke:#212121;stroke-width:0.52916664;stroke-miterlimit:4;stroke-dasharray:none;stroke-opacity:1"
       d="m 79.575728,263.97387 -6.612353,-3.49682 -0.486234,-7.46421 -0.277845,-7.47488 6.221082,-4.15319 6.334507,-3.97806 6.707316,3.31101 6.612353,3.49682 0.486233,7.46421 0.277846,7.47488 -6.221082,4.1532 -6.334508,3.97805 z m -11.791512,23.07034 -6.612353,-3.49682 -0.486233,-7.46421 -0.277846,-7.47487 6.221082,-4.1532 6.334508,-3.97806 6.707316,3.31102 6.612352,3.49681 0.486234,7.46422 0.277845,7.47487 -6.221082,4.1532 -6.334507,3.97806 z m 21.290787,-90.95796 -6.612353,-3.49682 -0.486234,-7.46421 -0.277845,-7.47488 6.221082,-4.15319 6.334507,-3.97806 6.70732,3.31102 6.61235,3.49681 0.48623,7.46422 0.27785,7.47487 -6.22108,4.1532 -6.334511,3.97805 z m -25.87526,1.32342 -6.612352,-3.49681 -0.486234,-7.46422 -0.277845,-7.47487 6.221082,-4.1532 6.334507,-3.97806 6.707316,3.31102 6.612353,3.49682 0.486233,7.46421 0.277846,7.47487 -6.221083,4.1532 -6.334507,3.97806 z m -21.290783,90.95796 -6.612352,-3.49681 -0.486234,-7.46421 -0.277845,-7.47488 6.221082,-4.1532 6.334507,-3.97805 6.707316,3.31101 6.612353,3.49682 0.486233,7.46421 0.277846,7.47488 -6.221082,4.15319 -6.334508,3.97806 z m -4.584476,-89.63453 -6.612353,-3.49682 -0.486233,-7.46421 -0.277846,-7.47487 6.221082,-4.1532 6.334508,-3.97806 6.707315,3.31102 6.612353,3.49681 0.486234,7.46422 0.277845,7.47487 -6.221082,4.1532 -6.334507,3.97805 z m -23.583019,46.14068 -6.6123525,-3.49681 -0.4862336,-7.46422 -0.2778455,-7.47487 6.2210826,-4.1532 6.334506,-3.97805 6.707316,3.31101 6.612353,3.49682 0.486234,7.46421 0.277845,7.47487 -6.221082,4.1532 -6.334507,3.97806 z m 2.292238,44.81728 -6.6123522,-3.49682 -0.4862337,-7.46421 -0.2778455,-7.47487 6.2210814,-4.1532 6.334508,-3.97806 6.707315,3.31102 6.612353,3.49681 0.486234,7.46422 0.277845,7.47487 -6.221082,4.1532 -6.334507,3.97806 z m 89.417277,-27.04062 -6.612353,-3.49681 -0.486234,-7.46422 -0.277845,-7.47487 6.221082,-4.1532 6.33451,-3.97806 6.70731,3.31102 6.61236,3.49681 0.48623,7.46422 0.27785,7.47487 -6.22109,4.1532 -6.3345,3.97806 z m -77.625767,3.97028 -6.612353,-3.49682 -0.486234,-7.46421 -0.277845,-7.47488 6.221082,-4.15319 6.334507,-3.97806 6.707316,3.31102 6.612353,3.49681 0.486233,7.46421 0.277846,7.47488 -6.221082,4.1532 -6.334508,3.97805 z m 65.834262,19.10006 -6.612352,-3.49681 -0.486234,-7.46422 -0.277845,-7.47487 6.221082,-4.1532 6.334507,-3.97805 6.707317,3.31101 6.61235,3.49682 0.48624,7.46421 0.27784,7.47487 -6.22108,4.1532 -6.33451,3.97806 z m 9.499275,-67.88761 -6.612352,-3.49682 -0.486234,-7.46421 -0.277845,-7.47488 6.221081,-4.1532 6.33451,-3.97805 6.70732,3.31101 6.61235,3.49682 0.48623,7.46421 0.27785,7.47488 -6.22109,4.15319 -6.3345,3.97806 z m -77.625774,3.97029 -6.612352,-3.49682 -0.486234,-7.46421 -0.277846,-7.47488 6.221083,-4.15319 6.334507,-3.97806 6.707316,3.31101 6.612352,3.49682 0.486234,7.46421 0.277846,7.47488 -6.221083,4.15319 -6.334507,3.97806 z"
       inkscape:connector-curvature="0" />
    <path
       style="fill:#37c871;stroke:#212121;stroke-width:0.3346197;stroke-linecap:round;stroke-linejoin:round;stroke-miterlimit:4;stroke-dasharray:none;stroke-opacity:1"
       d="m 107.42461,251.74547 c -2.04212,-3.09599 -3.74539,-5.67717 -3.78505,-5.73596 -0.0662,-0.0982 0.0194,-0.13136 1.04612,-0.406 0.61502,-0.1645 1.14783,-0.3099 1.184,-0.32311 0.0362,-0.0132 1.22137,1.73323 2.63375,3.88094 2.16842,3.29737 2.58933,3.90493 2.70525,3.90493 0.11657,0 0.50722,-0.57703 2.5891,-3.82435 1.3485,-2.10339 2.48154,-3.85801 2.51786,-3.89914 0.0515,-0.0583 0.32414,-0.004 1.23854,0.24657 l 1.1725,0.32136 -0.21097,0.30635 c -0.11603,0.16849 -1.80401,2.72536 -3.75107,5.68194 -1.94706,2.95658 -3.55968,5.39808 -3.5836,5.42557 -0.0239,0.0275 -1.71431,-2.48311 -3.75643,-5.5791 z"
       id="path4961"
       inkscape:connector-curvature="0" />
    <path
       style="fill:#53676c;stroke:#212121;stroke-width:0.3346197;stroke-linecap:round;stroke-linejoin:round;stroke-miterlimit:4;stroke-dasharray:none;stroke-opacity:1"
       d="m 108.95519,248.9014 c -1.23536,-1.87921 -2.23591,-3.42754 -2.22344,-3.44072 0.0125,-0.0132 0.5575,0.12342 1.21117,0.30357 l 1.18848,0.32755 1.43744,2.39406 c 0.7906,1.31674 1.44806,2.4233 1.46102,2.45901 0.013,0.0357 -0.16815,0.35932 -0.40248,0.71911 l -0.42607,0.65416 z"
       id="path4963"
       inkscape:connector-curvature="0" />
    <path
       style="fill:#53676c;fill-opacity:0.9990317;stroke:#212121;stroke-width:0.3346197;stroke-linecap:round;stroke-linejoin:round;stroke-miterlimit:4;stroke-dasharray:none;stroke-opacity:1"
       d="m 112.10968,256.90035 c 0,-0.0395 6.81496,-10.38207 6.989,-10.60667 l 0.13042,-0.16829 0.53783,0.4312 0.53783,0.4312 -0.3709,0.53575 c -0.204,0.29466 -1.5113,2.1915 -2.90511,4.2152 l -2.5342,3.67945 -1.19243,0.75652 c -0.65584,0.41609 -1.19244,0.74263 -1.19244,0.72564 z"
       id="path4965"
       inkscape:connector-curvature="0" />
    <path
       id="path4823-7-2"
       style="fill:none;fill-rule:evenodd;stroke:#00ccff;stroke-width:0.54151177;stroke-miterlimit:4;stroke-dasharray:none;stroke-opacity:1"
       d="m 33.497903,212.17297 a 2.4853008,10.484455 39.310504 0 0 5.058106,-9.94037 2.4853008,10.484455 39.310504 0 0 -8.36941,6.1448 2.4853008,10.484455 39.310504 0 0 -5.058102,9.94037 2.4853008,10.484455 39.310504 0 0 8.369406,-6.1448 z m -3.648178,0.19739 a 10.484455,2.4853008 50.689496 0 1 -5.058108,-9.94039 10.484455,2.4853008 50.689496 0 1 8.369415,6.14482 10.484455,2.4853008 50.689496 0 1 5.058104,9.94037 10.484455,2.4853008 50.689496 0 1 -8.369411,-6.1448 z m 1.512841,0.91479 a 9.6012001,2.7139342 0.48878349 0 1 -9.584388,-2.79391 9.6012001,2.7139342 0.48878349 0 1 9.617336,-2.63389 9.6012001,2.7139342 0.48878349 0 1 9.584388,2.79392 9.6012001,2.7139342 0.48878349 0 1 -9.617336,2.63388 z"
       inkscape:connector-curvature="0" />
    <ellipse
       style="fill:#00ccff;fill-rule:evenodd;stroke-width:0.12925781"
       id="path4855"
       cx="31.661114"
       cy="210.58612"
       rx="1.2506068"
       ry="1.4654639" />
    <path
       style="fill:#333333;stroke:none;stroke-width:0.05344681"
       d="m 68.401968,191.88849 c -2.601974,-0.46496 -4.662622,-2.3324 -5.481605,-4.96765 -0.251817,-0.81028 -0.354637,-1.49496 -0.353526,-2.35418 0.002,-1.51846 0.393855,-2.88176 1.20254,-4.18338 0.35803,-0.57626 1.039533,-1.34356 1.56773,-1.76509 0.749046,-0.59777 1.856845,-1.11442 2.841343,-1.32512 0.634533,-0.13579 1.942787,-0.1358 2.541479,0 1.765019,0.40035 3.2191,1.40425 4.332642,2.99126 0.2093,0.29829 0.449178,0.68328 0.533061,0.85553 0.40914,0.84017 0.0028,1.95092 -0.838927,2.29301 -0.521522,0.21197 -1.20614,0.0833 -1.598078,-0.30046 -0.06658,-0.0652 -0.221247,-0.28475 -0.343697,-0.48793 -0.742405,-1.23182 -1.821571,-1.87656 -3.140961,-1.87656 -1.129145,0 -2.121841,0.49809 -2.827001,1.41848 -0.572573,0.74734 -0.823839,1.51558 -0.823839,2.5189 0,0.97353 0.243669,1.73254 0.796942,2.48239 0.473251,0.64141 1.264223,1.18163 2.003978,1.3687 0.480224,0.12143 1.284422,0.11105 1.770756,-0.0229 1.102128,-0.30348 2.136295,-1.28668 2.508106,-2.38452 0.221824,-0.65497 0.702361,-1.0496 1.335757,-1.09694 0.83705,-0.0625 1.524787,0.58358 1.58518,1.48931 0.03013,0.45186 -0.029,0.65809 -0.364002,1.26947 -0.515012,0.93991 -0.844088,1.42245 -1.324199,1.94174 -0.978594,1.05843 -2.146402,1.75492 -3.491457,2.08233 -0.497231,0.12103 -1.883795,0.15158 -2.432222,0.0536 z"
       id="path5029"
       inkscape:connector-curvature="0" />
    <path
       style="fill:#3771c8;fill-opacity:1;stroke:none;stroke-width:0.03170603"
       d="m 71.753076,277.68026 c 0,-3.56995 -0.01,-4.6472 -0.042,-4.67376 -0.0316,-0.026 -0.54913,-0.0346 -2.11458,-0.0346 h -2.07265 v -0.77656 -0.77657 h 5.5224 5.5224 v 0.77657 0.77656 h -2.07264 c -1.56546,0 -2.08292,0.008 -2.11459,0.0346 -0.0323,0.0266 -0.042,1.10381 -0.042,4.67376 v 4.63925 h -1.29323 -1.29322 z"
       id="path5703"
       inkscape:connector-curvature="0" />
    <path
       id="path4559-5"
       style="opacity:1;fill:none;fill-opacity:1;fill-rule:evenodd;stroke:#ffd42a;stroke-width:1.79390705;stroke-linecap:round;stroke-linejoin:round;stroke-miterlimit:4;stroke-dasharray:none;stroke-dashoffset:0;stroke-opacity:1"
       inkscape:original-d="m 112.12006,210.33851 c 0.791,0.1837 1.61786,0.36778 2.42721,0.55082 0.80933,0.18306 -0.52708,-1.92044 -0.79018,-2.8815 m 1.63701,-2.33064 c -0.791,-0.1837 -1.61785,-0.36777 -2.42718,-0.55082 -0.80936,-0.18306 0.52704,1.92046 0.79017,2.88146 m -4.03472,-0.2284 c -0.93316,0.65237 -1.88561,1.30528 -2.82935,1.95878 -0.94376,0.65349 -1.56815,-2.12045 -2.35315,-3.17982 m 5.1825,-6.207 v 7.42804 m -5.46264,-7.70788 h 8.51612"
       d="m 112.12006,210.33851 c 0.21351,0.42276 0.62207,0.74191 1.08395,0.84673 0.46188,0.10482 0.96818,-0.007 1.34326,-0.29591 0.25183,-0.19416 0.44419,-0.46442 0.54518,-0.76595 0.10098,-0.30153 0.11019,-0.63313 0.0261,-0.9398 -0.0841,-0.30667 -0.26116,-0.58719 -0.50183,-0.79503 -0.24066,-0.20784 -0.54397,-0.34217 -0.85962,-0.38072 m 1.63701,-2.33064 c -0.21351,-0.42276 -0.62206,-0.74191 -1.08394,-0.84672 -0.46187,-0.10482 -0.96816,0.007 -1.34324,0.2959 -0.25183,0.19416 -0.44418,0.46442 -0.54517,0.76594 -0.10098,0.30153 -0.11019,0.63312 -0.0261,0.93979 0.0841,0.30666 0.26115,0.58718 0.50182,0.79501 0.24066,0.20784 0.54397,0.34217 0.85961,0.38072 m -4.03472,-0.2284 c -0.16207,0.60212 -0.5432,1.14272 -1.05588,1.49765 -0.51268,0.35493 -1.15284,0.52138 -1.77347,0.46113 -0.73959,-0.0718 -1.44165,-0.46935 -1.88366,-1.06665 -0.44202,-0.5973 -0.617,-1.3849 -0.46949,-2.11317 m 5.1825,-6.207 v 7.42804 m -5.46264,-7.70788 h 8.51612"
       inkscape:connector-curvature="0"
       inkscape:path-effect="#path-effect4561-4" />
    <path
       sodipodi:type="star"
       style="fill:none;fill-rule:evenodd;stroke:#00d455;stroke-width:0.22868977;stroke-miterlimit:4;stroke-dasharray:none;stroke-opacity:1"
       id="path4593"
       sodipodi:sides="6"
       sodipodi:cx="25.295864"
       sodipodi:cy="230.85258"
       sodipodi:r1="3.4311881"
       sodipodi:r2="4.1077685"
       sodipodi:arg1="0.90250696"
       sodipodi:arg2="1.4261057"
       inkscape:flatsided="true"
       inkscape:rounded="0"
       inkscape:randomized="0"
       d="m 27.42198,233.54567 -3.395334,0.49473 -2.126116,-2.69308 1.269218,-3.18782 3.395334,-0.49473 2.126116,2.69308 z"
       transform="matrix(1.1233964,0,0,1.1915121,6.3933921,-19.278338)" />
    <text
       xml:space="preserve"
       style="font-style:normal;font-weight:normal;font-size:5.29935455px;line-height:1.25;font-family:sans-serif;letter-spacing:0px;word-spacing:0px;fill:#00d455;fill-opacity:1;stroke:none;stroke-width:0.26458332;stroke-miterlimit:4;stroke-dasharray:none"
       x="32.425823"
       y="259.93591"
       id="text4739"
       transform="scale(1.0117098,0.98842573)"><tspan
         sodipodi:role="line"
         id="tspan4737"
         x="32.425823"
         y="259.93591"
         style="fill:#00d455;fill-opacity:1;stroke-width:0.26458332;stroke-miterlimit:4;stroke-dasharray:none">js </tspan></text>
    <path
       style="fill:#212120;stroke:none;stroke-width:0.04108437;fill-opacity:0"
       d="m 16.81621,284.9864 c -0.11371,-0.0771 -0.23286,-0.20297 -0.28196,-0.29787 -0.0847,-0.16368 -0.0851,-0.18825 -0.0957,-6.12031 l -0.0107,-5.95598 0.10717,-0.21904 c 0.0714,-0.1459 0.16312,-0.25608 0.27473,-0.32993 l 0.16756,-0.11089 h 6.06594 6.06595 l 0.17472,0.11563 c 0.121,0.0801 0.20523,0.18114 0.27392,0.32867 l 0.0992,0.21305 5.3e-4,5.89975 c 2.7e-4,4.30219 -0.0122,5.93756 -0.0463,6.0394 -0.0701,0.20929 -0.22634,0.39764 -0.40591,0.48925 -0.15793,0.0806 -0.25071,0.0818 -6.17619,0.0818 h -6.01585 z m 6.4941,-1.4848 c 0.55788,-0.26451 0.81377,-0.88527 0.61065,-1.48137 -0.0651,-0.19116 -0.31831,-0.49787 -0.48506,-0.58762 -0.0766,-0.0412 -0.0812,-0.12396 -0.11499,-2.06514 -0.0193,-1.1122 -0.0267,-2.03061 -0.0164,-2.04093 0.0103,-0.0103 0.79853,0.25532 1.75159,0.59029 l 1.73283,0.60905 0.0104,0.22596 c 0.036,0.77935 0.92445,1.18131 1.52213,0.68865 0.52781,-0.43506 0.41723,-1.25059 -0.21253,-1.56743 -0.1421,-0.0715 -0.58639,-0.0907 -0.70318,-0.0304 -0.0927,0.0479 -4.25632,-1.47305 -4.26733,-1.55879 -0.036,-0.28018 -0.0747,-0.38744 -0.18547,-0.51358 -0.18609,-0.21194 -0.32445,-0.26962 -0.6236,-0.25993 l -0.2579,0.008 -1.35024,-1.11552 c -0.74264,-0.61354 -1.38302,-1.11552 -1.42309,-1.11552 -0.0841,0 -0.16832,0.1329 -0.13473,0.21272 0.0126,0.0299 0.44235,0.3987 0.95506,0.81961 0.51271,0.4209 1.1512,0.94623 1.41887,1.16739 l 0.48666,0.40211 0.19894,-0.051 c 0.1705,-0.0437 0.21901,-0.0415 0.33934,0.0156 0.17621,0.0836 0.23001,0.18807 0.24397,0.47375 l 0.011,0.22596 0.61627,0.22917 c 0.33895,0.12605 1.35807,0.50046 2.26472,0.83203 1.64464,0.60147 1.6488,0.60272 1.79612,0.54117 0.20206,-0.0844 0.31261,-0.0777 0.51955,0.0318 0.56549,0.29904 0.35381,1.13876 -0.28707,1.13876 -0.21222,0 -0.41089,-0.10416 -0.5216,-0.27347 -0.0546,-0.0835 -0.0741,-0.19367 -0.0741,-0.41853 0,-0.22798 -0.0156,-0.31421 -0.0616,-0.34092 -0.16302,-0.0946 -3.94886,-1.38635 -4.00258,-1.36573 -0.0339,0.013 -0.0714,0.0543 -0.0832,0.0918 -0.0118,0.0374 -0.004,0.96477 0.0181,2.06069 0.0218,1.09593 0.04,2.10767 0.0405,2.24832 8e-4,0.24691 0.006,0.25804 0.13445,0.3232 0.32429,0.16391 0.49979,0.44725 0.49744,0.80309 -0.005,0.71668 -0.86065,1.11182 -1.39398,0.64355 -0.43897,-0.38542 -0.40565,-1.03431 0.0707,-1.37652 l 0.20018,-0.14381 -0.0216,-0.49913 c -0.0119,-0.27451 -0.0409,-1.32183 -0.0645,-2.32737 -0.0482,-2.05455 -0.0356,-1.98159 -0.3262,-1.89454 -0.12573,0.0377 -0.20321,0.0391 -0.30494,0.005 -0.20212,-0.0667 -0.27697,-0.17426 -0.30569,-0.43927 l -0.0255,-0.23537 -1.39686,-1.15977 c -0.8219,-0.68239 -1.43285,-1.16097 -1.48428,-1.16268 -0.10353,-0.003 -0.19783,0.0959 -0.1671,0.17595 0.012,0.0312 0.63117,0.55965 1.37603,1.17442 l 1.35429,1.11777 0.0256,0.19317 c 0.0496,0.37431 0.36333,0.66362 0.71953,0.66362 0.16164,0 0.16369,0.002 0.18432,0.17461 0.0115,0.096 0.0397,1.0427 0.0627,2.10371 l 0.0419,1.92909 -0.18114,0.17356 c -0.23258,0.22285 -0.35387,0.46353 -0.38026,0.75456 -0.0443,0.48902 0.21261,0.94705 0.65494,1.16747 0.29106,0.14505 0.702,0.14832 0.99804,0.008 z"
       id="path4712"
       inkscape:connector-curvature="0" />
    <path
       style="fill:#212121;fill-opacity:1;stroke:none;stroke-width:0.02905104"
       d="m 17.04553,284.89614 c -0.19178,-0.0328 -0.3514,-0.12359 -0.48584,-0.27632 -0.2272,-0.25812 -0.20908,0.28971 -0.20908,-6.31821 0,-6.63144 -0.0196,-6.06282 0.21842,-6.32758 0.0692,-0.077 0.17916,-0.16406 0.24426,-0.19341 0.0651,-0.0294 0.11834,-0.0618 0.11834,-0.0721 0,-0.0103 0.31049,0.29551 0.68997,0.67962 0.37948,0.38412 1.01602,1.02814 1.41453,1.43117 0.39851,0.40303 0.73669,0.75444 0.7515,0.7809 0.0148,0.0265 0.0286,0.14784 0.0307,0.26971 0.003,0.17867 0.0195,0.25355 0.0849,0.38664 0.14011,0.28532 0.44623,0.48639 0.75742,0.49748 l 0.15797,0.006 0.0177,0.52292 c 0.01,0.2876 0.0379,1.56702 0.0626,2.84314 l 0.0449,2.32023 -0.067,0.0448 c -0.13876,0.0928 -0.34527,0.33818 -0.43076,0.51185 -0.32753,0.66531 -0.0483,1.45994 0.62539,1.77988 0.18507,0.0879 0.25999,0.10667 0.47456,0.1189 0.42417,0.0242 0.7503,-0.10259 1.03694,-0.4031 0.49732,-0.52139 0.49728,-1.30186 -9e-5,-1.8233 -0.0885,-0.0928 -0.20662,-0.19331 -0.26247,-0.22339 l -0.10156,-0.0547 5.3e-4,-0.34928 c 2.3e-4,-0.19209 -0.0146,-1.41182 -0.0331,-2.7105 -0.0184,-1.29868 -0.0272,-2.36753 -0.0195,-2.37523 0.008,-0.008 0.84943,0.34727 1.87053,0.78881 l 1.85654,0.8028 0.002,0.29418 c 0.002,0.35393 0.0643,0.54032 0.26972,0.80995 0.48026,0.63051 1.40901,0.71259 1.98342,0.1753 0.29185,-0.27299 0.43437,-0.60073 0.43525,-1.00089 7.9e-4,-0.39469 -0.12787,-0.69716 -0.41213,-0.96829 -0.41772,-0.39844 -1.03205,-0.49705 -1.53044,-0.24565 l -0.16387,0.0827 -2.23222,-1.00798 -2.23222,-1.00798 -0.009,-0.21934 c -0.007,-0.18306 -0.0246,-0.24934 -0.10529,-0.40077 -0.17022,-0.31936 -0.42454,-0.46764 -0.80378,-0.46866 l -0.23724,-5.3e-4 -0.93277,-0.95142 -0.93276,-0.95143 4.83044,-0.008 c 3.05259,-0.005 4.89905,0.003 5.01688,0.0206 0.22555,0.0345 0.41401,0.14378 0.54583,0.31662 0.19661,0.25777 0.18417,-0.19067 0.17584,6.33896 l -0.008,5.91076 -0.0811,0.16506 c -0.0918,0.187 -0.23258,0.32346 -0.42586,0.41289 l -0.13221,0.0612 -5.86831,0.004 c -3.22757,0.002 -5.92818,-0.006 -6.00135,-0.0187 z"
       id="path4804"
       inkscape:connector-curvature="0" />
  </g>
</svg>
