<?xml version="1.0" encoding="UTF-8" standalone="no"?>
<!-- Created with Inkscape (http://www.inkscape.org/) -->

<svg
   xmlns:dc="http://purl.org/dc/elements/1.1/"
   xmlns:cc="http://creativecommons.org/ns#"
   xmlns:rdf="http://www.w3.org/1999/02/22-rdf-syntax-ns#"
   xmlns:svg="http://www.w3.org/2000/svg"
   xmlns="http://www.w3.org/2000/svg"
   xmlns:sodipodi="http://sodipodi.sourceforge.net/DTD/sodipodi-0.dtd"
   xmlns:inkscape="http://www.inkscape.org/namespaces/inkscape"
   width="500"
   height="500"
   viewBox="0 0 132.29166 132.29167"
   version="1.1"
   id="svg8"
   inkscape:version="0.92.1 r15371"
   sodipodi:docname="illustration-technologies.svg">
  <g
     inkscape:label="Layer 1"
     inkscape:groupmode="layer"
     id="layer1"
     transform="translate(0,-164.70832)">
    <path
       id="path4546"
       style="opacity:1;fill:none;fill-opacity:1;fill-rule:evenodd;stroke:#212121;stroke-width:0.79374999;stroke-linecap:round;stroke-linejoin:round;stroke-miterlimit:4;stroke-dasharray:none;stroke-dashoffset:0;stroke-opacity:0.39195979"
       d="m 96.885203,274.95025 c 0.209913,2.09913 1.282668,4.09892 2.915408,5.4348 1.632739,1.33587 3.805359,1.99139 5.904489,1.78147 2.09913,-0.20991 4.09892,-1.28266 5.43479,-2.9154 1.33588,-1.63274 1.99139,-3.80536 1.78148,-5.90449 -0.20991,-2.09913 -1.28267,-4.09892 -2.91541,-5.4348 -1.63274,-1.33587 -3.80535,-1.99139 -5.90448,-1.78147 -2.09913,0.20991 -4.09892,1.28266 -5.4348,2.9154 -1.335877,1.63274 -1.99139,3.80536 -1.781477,5.90449 z m -0.4009,-45.83673 v 45.43582 l 0.4009,0.40091 m -59.46747,-3.34087 c -1.679304,-2.06414 -4.197999,-3.42427 -6.845017,-3.69639 -2.647018,-0.27213 -5.389759,0.54711 -7.453904,2.22641 -2.064144,1.6793 -3.42427,4.198 -3.696393,6.84502 -0.272123,2.64701 0.547109,5.38976 2.226413,7.4539 1.679304,2.06414 4.197999,3.42427 6.845017,3.69639 2.647018,0.27213 5.389759,-0.54711 7.453904,-2.22641 2.064144,-1.6793 3.42427,-4.198 3.696393,-6.84502 0.272123,-2.64701 -0.547109,-5.38976 -2.226413,-7.4539 z m 17.372519,-32.74052 -19.37704,30.33509 M 96.484303,207.19742 V 186.3504 H 117.19768 V 172.05148 H 74.300928 v 14.29892 h 22.183375 v 0 m -73.365489,-9.35443 c -0.653202,0.30091 -1.280012,0.65909 -1.870887,1.06907 -1.8064,1.25339 -3.267521,2.99922 -4.183078,4.99817 -0.915557,1.99896 -1.283089,4.24567 -1.052216,6.43216 0.230872,2.1865 1.059528,4.30691 2.372379,6.07056 1.312851,1.76366 3.106369,3.16583 5.134706,4.01431 3.764454,1.57472 8.310197,1.11866 11.686802,-1.17249 3.376605,-2.29116 5.479928,-6.34675 5.407504,-10.42665 -0.07242,-4.07991 -2.318363,-8.05829 -5.774157,-10.22816 -3.455794,-2.16987 -8.01486,-2.4643 -11.721053,-0.75697 z M 53.721175,231.65258 35.01231,199.17933 m -1.06908,24.85607 c -2.816333,-1.71429 -6.321033,-2.25864 -9.524667,-1.47938 -3.203634,0.77926 -6.066747,2.87254 -7.781037,5.68888 -1.714289,2.81633 -2.258642,6.32103 -1.47938,9.52466 0.779263,3.20364 2.872544,6.06675 5.688877,7.78104 2.816333,1.71429 6.321033,2.25864 9.524667,1.47938 3.203634,-0.77926 6.066747,-2.87254 7.781037,-5.68888 1.714289,-2.81633 2.258642,-6.32103 1.47938,-9.52466 -0.779263,-3.20364 -2.872544,-6.06675 -5.688877,-7.78104 z m 18.842503,11.09169 H 40.224065 m 37.150465,0.66817 c -3.026246,-0.85714 -6.386712,-0.46322 -9.132685,1.07057 -2.745972,1.53379 -4.843631,4.18854 -5.700776,7.21479 -0.857145,3.02625 -0.463218,6.38671 1.070569,9.13268 1.533787,2.74598 4.188544,4.84364 7.21479,5.70078 3.026246,0.85714 6.386712,0.46322 9.132685,-1.07057 2.745972,-1.53379 4.843631,-4.18854 5.700776,-7.21479 0.857145,-3.02625 0.463218,-6.38671 -1.070569,-9.13268 -1.533787,-2.74598 -4.188544,-4.84364 -7.21479,-5.70078 z M 57.730219,270.5403 H 74.5682 V 259.71588 M 57.730219,240.07157 v 30.46873 m 46.064541,-59.60215 c -1.86776,-2.02856 -4.559093,-3.27573 -7.314202,-3.38944 -2.755109,-0.1137 -5.540059,0.90748 -7.568615,2.77523 -2.028556,1.86776 -3.275734,4.5591 -3.389436,7.31421 -0.113702,2.7551 0.907472,5.54005 2.775229,7.56861 1.867757,2.02856 4.559093,3.27573 7.314202,3.38944 2.755109,0.1137 5.540062,-0.90748 7.568612,-2.77523 2.02856,-1.86776 3.27574,-4.5591 3.38944,-7.31421 0.1137,-2.7551 -0.90747,-5.54005 -2.77523,-7.56861 z m -46.866348,19.37808 v -11.49259 h 27.929666 m -27.929667,11.49259 c -1.207,0.19242 -2.327355,0.88053 -3.044771,1.87007 -0.717416,0.98954 -1.023058,2.26832 -0.830638,3.47532 0.19242,1.207 0.880533,2.32736 1.870072,3.04477 0.989539,0.71742 2.268319,1.02306 3.475319,0.83064 1.207,-0.19242 2.327355,-0.88053 3.044771,-1.87007 0.717416,-0.98954 1.023058,-2.26832 0.830638,-3.47532 -0.19242,-1.207 -0.880533,-2.32736 -1.870072,-3.04477 -0.989539,-0.71742 -2.268319,-1.02306 -3.475319,-0.83064 z"
       inkscape:connector-curvature="0"
       inkscape:path-effect="#path-effect4548"
       sodipodi:nodetypes="scscccsssccccccccccscssccsssccssscccccccccccsss" />
    <path
       id="path4559-5"
       style="opacity:1;fill:none;fill-opacity:1;fill-rule:evenodd;stroke:#ffd42a;stroke-width:0.79374999;stroke-linecap:round;stroke-linejoin:round;stroke-miterlimit:4;stroke-dasharray:none;stroke-dashoffset:0;stroke-opacity:1"
       inkscape:path-effect="#path-effect4561-4"
       inkscape:original-d="m 58.616551,237.06608 c 0.333522,0.0853 0.682161,0.17077 1.023417,0.25576 0.341255,0.085 -0.222232,-0.89171 -0.333175,-1.33795 m 0.690243,-1.08217 c -0.333523,-0.0853 -0.682162,-0.17077 -1.023417,-0.25576 -0.341255,-0.085 0.222232,0.89171 0.333174,1.33793 m -1.701207,-0.10605 c -0.393461,0.30291 -0.795059,0.60607 -1.192987,0.90951 -0.397928,0.30343 -0.661194,-0.98458 -0.992188,-1.47647 m 2.185175,-2.88207 v 3.44903 m -2.303293,-3.57896 h 3.590774"
       d="m 58.616551,237.06608 c 0.09674,0.17129 0.265895,0.3001 0.456749,0.3478 0.190853,0.0477 0.400722,0.0136 0.566668,-0.092 0.127546,-0.0812 0.228652,-0.20323 0.284722,-0.34365 0.05607,-0.14042 0.06683,-0.29853 0.03029,-0.44525 -0.03654,-0.14672 -0.120183,-0.28132 -0.235556,-0.37905 -0.115373,-0.0977 -0.2619,-0.1581 -0.412631,-0.17 m 0.690243,-1.08217 c -0.09673,-0.1713 -0.265894,-0.30011 -0.456748,-0.3478 -0.190853,-0.0477 -0.400723,-0.0136 -0.566669,0.092 -0.127542,0.0812 -0.228645,0.20323 -0.284713,0.34365 -0.05607,0.14042 -0.06682,0.29852 -0.03029,0.44524 0.03654,0.14672 0.120181,0.28132 0.235552,0.37904 0.115371,0.0977 0.261895,0.15809 0.412623,0.17 m -1.701207,-0.10605 c -0.05275,0.26823 -0.206564,0.51533 -0.423958,0.68107 -0.217394,0.16573 -0.496409,0.24862 -0.769029,0.22844 -0.340277,-0.0252 -0.664777,-0.21379 -0.85509,-0.49699 -0.190312,-0.2832 -0.24234,-0.65491 -0.137098,-0.97948 m 2.185175,-2.88207 v 3.44903 m -2.303293,-3.57896 h 3.590774"
       inkscape:connector-curvature="0" />
    <path
       id="path4593-0"
       style="fill:none;fill-rule:evenodd;stroke:#44aa00;stroke-width:0.26458333;stroke-opacity:1;stroke-miterlimit:4;stroke-dasharray:none"
       d="m 19.541547,237.67107 -2.515019,0.39341 -1.574873,-2.14152 0.940145,-2.53493 2.515019,-0.39341 1.574873,2.14152 z m 8.179783,3.49623 -2.515018,0.3934 -1.574873,-2.14151 0.940145,-2.53494 2.515018,-0.3934 1.574874,2.14152 z m -1.269455,-9.35289 -2.515019,0.39341 -1.574873,-2.14152 0.940145,-2.53493 2.515019,-0.39341 1.574873,2.14152 z m 0.634727,4.67644 -2.515018,0.39341 -1.574874,-2.14152 0.940146,-2.53493 2.515018,-0.39341 1.574873,2.14152 z m -3.455163,2.92834 -2.515019,0.3934 -1.574873,-2.14152 0.940145,-2.53493 2.515018,-0.39341 1.574874,2.14152 z m -0.634729,-4.67645 -2.515018,0.39341 -1.574873,-2.14152 0.940145,-2.53493 2.515018,-0.39341 1.574874,2.14152 z"
       inkscape:connector-curvature="0" />
    <path
       sodipodi:type="star"
       style="fill:none;fill-rule:evenodd;stroke:#44aa00;stroke-width:0.22868977;stroke-miterlimit:4;stroke-dasharray:none;stroke-opacity:1"
       id="path4593"
       sodipodi:sides="6"
       sodipodi:cx="25.295864"
       sodipodi:cy="230.85258"
       sodipodi:r1="3.4311881"
       sodipodi:r2="4.1077685"
       sodipodi:arg1="0.90250696"
       sodipodi:arg2="1.4261057"
       inkscape:flatsided="true"
       inkscape:rounded="0"
       inkscape:randomized="0"
       d="m 27.42198,233.54567 -3.395334,0.49473 -2.126116,-2.69308 1.269218,-3.18782 3.395334,-0.49473 2.126116,2.69308 z"
       transform="matrix(1.1233964,0,0,1.1915121,2.4836255,-39.162275)" />
    <text
       xml:space="preserve"
       style="font-style:normal;font-weight:normal;font-size:5.29935455px;line-height:1.25;font-family:sans-serif;letter-spacing:0px;word-spacing:0px;fill:#44aa00;fill-opacity:1;stroke:none;stroke-width:0.26458332;stroke-miterlimit:4;stroke-dasharray:none"
       x="28.627354"
       y="240.02193"
       id="text4739"
       transform="scale(1.0117098,0.98842573)"><tspan
         sodipodi:role="line"
         id="tspan4737"
         x="28.627354"
         y="240.02193"
         style="fill:#44aa00;fill-opacity:1;stroke-width:0.26458332;stroke-miterlimit:4;stroke-dasharray:none">js </tspan></text>
    <path
       id="path4823-7-2"
       style="fill:none;fill-rule:evenodd;stroke:#00ccff;stroke-width:0.50623286;stroke-miterlimit:4;stroke-dasharray:none;stroke-opacity:1"
       d="m 29.961248,189.53237 a 2.3428029,9.7201711 43.602668 0 0 5.058106,-8.68735 2.3428029,9.7201711 43.602668 0 0 -8.36941,5.37022 2.3428029,9.7201711 43.602668 0 0 -5.058102,8.68735 2.3428029,9.7201711 43.602668 0 0 8.369406,-5.37022 z m -3.648178,0.17251 a 9.7201711,2.3428029 46.397332 0 1 -5.058108,-8.68737 9.7201711,2.3428029 46.397332 0 1 8.369415,5.37024 9.7201711,2.3428029 46.397332 0 1 5.058104,8.68735 9.7201711,2.3428029 46.397332 0 1 -8.369411,-5.37022 z m 1.512841,0.79947 a 9.6011192,2.3718532 0.41858682 0 1 -9.584388,-2.44172 9.6011192,2.3718532 0.41858682 0 1 9.617336,-2.30188 9.6011192,2.3718532 0.41858682 0 1 9.584388,2.44173 9.6011192,2.3718532 0.41858682 0 1 -9.617336,2.30187 z"
       inkscape:connector-curvature="0" />
    <ellipse
       style="fill:#00ccff;fill-rule:evenodd;stroke-width:0.1208368"
       id="path4855"
       cx="28.124458"
       cy="188.14554"
       rx="1.2506068"
       ry="1.2807369" />
    <path
       style="fill:#37c871;stroke:#212121;stroke-width:0.3346197;stroke-linecap:round;stroke-linejoin:round;stroke-miterlimit:4;stroke-dasharray:none;stroke-opacity:1"
       d="m 25.180224,279.91638 c -2.042118,-3.09599 -3.745391,-5.67717 -3.785049,-5.73596 -0.06621,-0.0982 0.0194,-0.13136 1.046119,-0.406 0.615024,-0.1645 1.147827,-0.3099 1.184005,-0.32311 0.03618,-0.0132 1.221365,1.73323 2.633749,3.88094 2.16842,3.29737 2.58933,3.90493 2.70525,3.90493 0.116566,0 0.507219,-0.57703 2.589096,-3.82435 1.348499,-2.10339 2.481538,-3.85801 2.517863,-3.89914 0.05151,-0.0583 0.32414,-0.004 1.238539,0.24657 l 1.172494,0.32136 -0.210965,0.30635 c -0.116031,0.16849 -1.804012,2.72536 -3.75107,5.68194 -1.947058,2.95658 -3.559677,5.39808 -3.583597,5.42557 -0.02392,0.0275 -1.714316,-2.48311 -3.756434,-5.5791 z"
       id="path4961"
       inkscape:connector-curvature="0" />
    <path
       style="fill:#53676c;stroke:#212121;stroke-width:0.3346197;stroke-linecap:round;stroke-linejoin:round;stroke-miterlimit:4;stroke-dasharray:none;stroke-opacity:1"
       d="m 26.710808,277.07231 c -1.235367,-1.87921 -2.235914,-3.42754 -2.223441,-3.44072 0.01248,-0.0132 0.557497,0.12342 1.211165,0.30357 l 1.188487,0.32755 1.437441,2.39406 c 0.790591,1.31674 1.448049,2.4233 1.461015,2.45901 0.01297,0.0357 -0.168151,0.35932 -0.402485,0.71911 l -0.426062,0.65416 z"
       id="path4963"
       inkscape:connector-curvature="0" />
    <path
       style="fill:#53676c;fill-opacity:0.9990317;stroke:#212121;stroke-width:0.3346197;stroke-linecap:round;stroke-linejoin:round;stroke-miterlimit:4;stroke-dasharray:none;stroke-opacity:1"
       d="m 29.865291,285.07126 c 0,-0.0395 6.814959,-10.38207 6.989006,-10.60667 l 0.130413,-0.16829 0.537833,0.4312 0.537832,0.4312 -0.370907,0.53575 c -0.203999,0.29466 -1.511296,2.1915 -2.905105,4.2152 l -2.534197,3.67945 -1.192436,0.75652 c -0.655841,0.41609 -1.192439,0.74263 -1.192439,0.72564 z"
       id="path4965"
       inkscape:connector-curvature="0" />
    <path
       style="fill:#333333;stroke:none;stroke-width:0.05344681"
       d="m 72.937683,254.63253 c -2.601974,-0.46496 -4.662622,-2.3324 -5.481605,-4.96765 -0.251817,-0.81028 -0.354637,-1.49496 -0.353526,-2.35418 0.002,-1.51846 0.393855,-2.88176 1.20254,-4.18338 0.35803,-0.57626 1.039533,-1.34356 1.56773,-1.76509 0.749046,-0.59777 1.856845,-1.11442 2.841343,-1.32512 0.634533,-0.13579 1.942787,-0.1358 2.541479,0 1.765019,0.40035 3.2191,1.40425 4.332642,2.99126 0.2093,0.29829 0.449178,0.68328 0.533061,0.85553 0.40914,0.84017 0.0028,1.95092 -0.838927,2.29301 -0.521522,0.21197 -1.20614,0.0833 -1.598078,-0.30046 -0.06658,-0.0652 -0.221247,-0.28475 -0.343697,-0.48793 -0.742405,-1.23182 -1.821571,-1.87656 -3.140961,-1.87656 -1.129145,0 -2.121841,0.49809 -2.827001,1.41848 -0.572573,0.74734 -0.823839,1.51558 -0.823839,2.5189 0,0.97353 0.243669,1.73254 0.796942,2.48239 0.473251,0.64141 1.264223,1.18163 2.003978,1.3687 0.480224,0.12143 1.284422,0.11105 1.770756,-0.0229 1.102128,-0.30348 2.136295,-1.28668 2.508106,-2.38452 0.221824,-0.65497 0.702361,-1.0496 1.335757,-1.09694 0.83705,-0.0625 1.524787,0.58358 1.58518,1.48931 0.03013,0.45186 -0.029,0.65809 -0.364002,1.26947 -0.515012,0.93991 -0.844088,1.42245 -1.324199,1.94174 -0.978594,1.05843 -2.146402,1.75492 -3.491457,2.08233 -0.497231,0.12103 -1.883795,0.15158 -2.432222,0.0536 z"
       id="path5029"
       inkscape:connector-curvature="0" />
    <path
       id="path5703"
       style="fill:#3771c8;fill-opacity:1;stroke:none;stroke-width:0.03170603"
       d="m 98.579851,225.53516 c -1.001558,-0.14953 -1.905223,-0.64196 -2.474257,-1.34828 -0.205613,-0.25522 -0.448421,-0.69238 -0.4895,-0.88129 -0.03153,-0.14486 0.09675,-0.34008 0.278269,-0.42364 0.415521,-0.19129 0.890664,0.056 0.891611,0.46411 6.57e-4,0.26725 0.279486,0.65381 0.710816,0.98527 0.716283,0.55046 1.706659,0.7175 2.64092,0.44545 0.39162,-0.11397 0.64308,-0.24496 0.9475,-0.4933 0.83722,-0.68297 1.0284,-1.67718 0.48657,-2.53023 -0.34994,-0.55094 -0.83624,-0.86001 -1.932351,-1.22807 -1.603772,-0.53853 -2.40752,-1.15755 -2.699102,-2.07872 -0.0649,-0.20516 -0.06382,-0.66451 0.0022,-0.87296 0.116405,-0.36776 0.457149,-0.75443 0.845247,-0.95918 0.562781,-0.29691 1.304538,-0.33328 1.91633,-0.094 0.619876,0.24247 1.100996,0.82655 1.100996,1.33659 0,0.14958 -0.0108,0.17233 -0.11961,0.25694 -0.18868,0.14642 -0.41177,0.15885 -0.62708,0.035 -0.135498,-0.0779 -0.197015,-0.21269 -0.197015,-0.4313 0,-0.3567 -0.206948,-0.63475 -0.586695,-0.78819 -0.265429,-0.10727 -0.639182,-0.1129 -0.886294,-0.0133 -0.359729,0.14499 -0.589428,0.43156 -0.616323,0.76891 -0.02949,0.36941 0.142396,0.70173 0.544043,1.05209 0.404974,0.35325 0.836563,0.58681 1.982164,1.07256 1.29527,0.54925 1.80905,0.92186 2.22275,1.61208 0.2269,0.37859 0.31326,0.66073 0.3368,1.10044 0.0291,0.54305 -0.0697,0.94038 -0.35024,1.40852 -0.60853,1.01554 -1.88158,1.65365 -3.280835,1.64449 -0.218043,-0.001 -0.509163,-0.0194 -0.646909,-0.04 z m -4.695224,-7.55909 c 0,-3.56995 -0.0097,-4.6472 -0.04197,-4.67376 -0.03164,-0.026 -0.549135,-0.0346 -2.114582,-0.0346 h -2.072652 v -0.77656 -0.77657 h 5.522401 5.522396 v 0.77657 0.77656 h -2.072636 c -1.565459,0 -2.082919,0.008 -2.114593,0.0346 -0.03229,0.0266 -0.04197,1.10381 -0.04197,4.67376 v 4.63925 H 95.17779 93.884574 Z"
       inkscape:connector-curvature="0" />
    <path
       style="fill:#d45500;stroke:none;stroke-width:0.06045328"
       d="m 104.77754,279.89548 c -0.0954,-0.11551 -1.07186,-1.1572 -2.16982,-2.31479 l -1.99629,-2.10469 v -3.35114 -3.35116 h 4.14268 4.14268 l -0.002,3.3631 -0.002,3.36309 -1.86348,2.19134 c -1.02492,1.20525 -1.912,2.24152 -1.97129,2.30285 -0.10433,0.10795 -0.11346,0.10467 -0.28136,-0.0986 z m 0.64679,-3.96627 c 0.81064,-0.17419 1.43066,-0.59294 1.69703,-1.14611 0.53801,-1.11733 -0.002,-2.09207 -1.36251,-2.46187 -0.26592,-0.0722 -0.63079,-0.10271 -1.25984,-0.105 l -0.88553,-0.003 -6e-5,-0.7761 -5e-5,-0.77608 h 1.83419 1.83417 l -0.0179,-0.35002 -0.0179,-0.35001 -2.3265,-0.016 -2.32651,-0.016 v 1.56 1.56001 l 0.16511,-0.0394 c 0.0908,-0.0216 0.59738,-0.0557 1.12572,-0.0757 1.047,-0.0396 1.52022,0.0323 1.93844,0.29429 0.20796,0.1303 0.42955,0.51555 0.43144,0.75011 0.003,0.25103 -0.13122,0.58878 -0.31682,0.80313 -0.29124,0.3363 -0.62844,0.46028 -1.34069,0.49299 -0.66773,0.0306 -1.24797,-0.068 -1.9353,-0.32912 -0.21031,-0.0799 -0.39386,-0.14526 -0.40789,-0.14526 -0.0141,0 -0.0176,0.19747 -0.008,0.43884 l 0.0177,0.43884 0.27016,0.0805 c 0.83034,0.24733 2.16863,0.32656 2.89167,0.1712 z"
       id="path5748"
       inkscape:connector-curvature="0" />
    <text
       xml:space="preserve"
       style="font-style:normal;font-weight:normal;font-size:13.72758579px;line-height:1.25;font-family:sans-serif;letter-spacing:0px;word-spacing:0px;fill:#333333;fill-opacity:1;stroke:none;stroke-width:1.71594822;"
       x="80.368568"
       y="179.55829"
       id="text5800"
       transform="scale(0.9737745,1.0269318)"><tspan
         sodipodi:role="line"
         id="tspan5798"
         x="80.368568"
         y="179.55829"
         style="stroke-width:1.71594822;fill:#333333;fill-opacity:1;">Shell</tspan></text>
  </g>
</svg>
