<?xml version="1.0" encoding="UTF-8" standalone="no"?>
<!-- Created with Inkscape (http://www.inkscape.org/) -->

<svg
   xmlns:dc="http://purl.org/dc/elements/1.1/"
   xmlns:cc="http://creativecommons.org/ns#"
   xmlns:rdf="http://www.w3.org/1999/02/22-rdf-syntax-ns#"
   xmlns:svg="http://www.w3.org/2000/svg"
   xmlns="http://www.w3.org/2000/svg"
   xmlns:xlink="http://www.w3.org/1999/xlink"
   xmlns:sodipodi="http://sodipodi.sourceforge.net/DTD/sodipodi-0.dtd"
   xmlns:inkscape="http://www.inkscape.org/namespaces/inkscape"
   width="500"
   height="500"
   viewBox="0 0 132.29166 132.29167"
   version="1.1"
   id="svg8"
   inkscape:version="0.92.1 r15371"
   sodipodi:docname="illustration-scientist.svg">
  <defs
     id="defs2">
   
    <linearGradient
       inkscape:collect="always"
       id="linearGradient4653">
      <stop
         style="stop-color:#ff8750;stop-opacity:1;"
         offset="0"
         id="stop4649" />
      <stop
         style="stop-color:#ff8750;stop-opacity:0;"
         offset="1"
         id="stop4651" />
    </linearGradient>
   
    <linearGradient
       inkscape:collect="always"
       xlink:href="#linearGradient4653"
       id="linearGradient4655"
       x1="41.71912"
       y1="216.58556"
       x2="46.349331"
       y2="216.63278"
       gradientUnits="userSpaceOnUse"
       gradientTransform="matrix(0.84667584,0,0,0.89041948,3.7065241,-1.5734312)" />
  
  </defs>
  
  <g
     inkscape:label="Layer 1"
     inkscape:groupmode="layer"
     id="layer1"
     transform="translate(0,-164.70832)">
    <rect
       style="opacity:0.95899999;fill:#ff8750;fill-opacity:1;fill-rule:evenodd;stroke:#212121;stroke-width:0.45969042;stroke-linecap:round;stroke-miterlimit:4;stroke-dasharray:none;stroke-dashoffset:0;stroke-opacity:1"
       id="rect4485"
       width="69.909103"
       height="36.646923"
       x="27.325062"
       y="184.77834"
       ry="0.44513622" />
    <rect
       style="fill:#212121;fill-opacity:1;fill-rule:evenodd;stroke-width:0.28131232"
       id="rect4487"
       width="16.99535"
       height="9.8947859"
       x="28.835821"
       y="186.17044"
       ry="0.42406219" />
    <rect
       style="fill:#212121;fill-opacity:1;fill-rule:evenodd;stroke-width:0.48993975"
       id="rect4487-0"
       width="25.93383"
       height="19.668791"
       x="28.943684"
       y="198.96602"
       ry="0.35338521" />
    <rect
       style="fill:#212121;fill-opacity:1;fill-rule:evenodd;stroke-width:0.40815821"
       id="rect4487-1"
       width="35.777473"
       height="9.8947859"
       x="50.084332"
       y="186.19095"
       ry="0.34860319" />
    <rect
       style="fill:#212121;fill-opacity:1;fill-rule:evenodd;stroke-width:0.5414803"
       id="rect4487-2"
       width="33.288277"
       height="18.716862"
       x="59.475395"
       y="199.02527"
       ry="0.35338521" />
    <ellipse
       style="fill:#212121;fill-opacity:1;fill-rule:evenodd;stroke-width:0.38038588"
       id="path4516"
       cx="92.881798"
       cy="189.80345"
       rx="3.9202855"
       ry="4.1228275" />
    <path
       style="fill:none;stroke:#ff8750;stroke-width:0.22973035;stroke-linecap:round;stroke-linejoin:miter;stroke-miterlimit:4;stroke-dasharray:none;stroke-opacity:0.96078431"
       d="M 30.069384,200.70816 H 44.778276"
       id="path4518"
       inkscape:connector-curvature="0" />
    <path
       style="fill:none;stroke:#ff8750;stroke-width:0.22973035;stroke-linecap:round;stroke-linejoin:miter;stroke-miterlimit:4;stroke-dasharray:none;stroke-opacity:0.96078431"
       d="M 30.012812,202.19555 H 44.721705"
       id="path4518-2"
       inkscape:connector-curvature="0" />
    <path
       style="fill:none;stroke:#ff8750;stroke-width:0.2715975;stroke-linecap:round;stroke-linejoin:miter;stroke-miterlimit:4;stroke-dasharray:none;stroke-opacity:0.96078431"
       d="M 30.001419,203.50445 H 50.560081"
       id="path4518-6"
       inkscape:connector-curvature="0" />
    <path
       style="fill:none;stroke:#ff8750;stroke-width:0.22973035;stroke-linecap:round;stroke-linejoin:miter;stroke-miterlimit:4;stroke-dasharray:none;stroke-opacity:0.96078431"
       d="M 30.012811,205.05133 H 44.721705"
       id="path4518-2-7"
       inkscape:connector-curvature="0" />
    <rect
       style="opacity:0.57099998;fill:#ff8750;fill-opacity:0.96078431;fill-rule:evenodd;stroke-width:0.22973035"
       id="rect4542-7"
       width="3.3602448"
       height="3.5338523"
       x="90.640869"
       y="189.01549" />
    <rect
       style="fill:#ff8750;fill-opacity:0.96078431;fill-rule:evenodd;stroke-width:0.22973035"
       id="rect4542-2"
       width="3.3602448"
       height="3.5338523"
       x="91.840965"
       y="187.31166" />
    <path
       style="fill:none;stroke:#ff8850;stroke-width:0.04594607;stroke-linecap:butt;stroke-linejoin:miter;stroke-miterlimit:4;stroke-dasharray:none;stroke-opacity:0.9754902"
       d="m 91.840983,187.31126 -1.200095,1.70382"
       id="path4574"
       inkscape:connector-curvature="0" />
    <path
       style="fill:none;stroke:#ff8850;stroke-width:0.04594607;stroke-linecap:butt;stroke-linejoin:miter;stroke-miterlimit:4;stroke-dasharray:none;stroke-opacity:0.97276689"
       d="m 91.840983,190.84511 -1.200095,1.70383"
       id="path4576"
       inkscape:connector-curvature="0" />
    <path
       style="fill:none;stroke:#ff8750;stroke-width:0.04594607;stroke-linecap:butt;stroke-linejoin:miter;stroke-miterlimit:4;stroke-dasharray:none;stroke-opacity:0.96179714"
       d="m 95.201236,190.84511 -1.200087,1.70383"
       id="path4578"
       inkscape:connector-curvature="0" />
    <path
       style="fill:none;stroke:#ff8750;stroke-width:0.2101668px;stroke-linecap:round;stroke-linejoin:miter;stroke-opacity:0.96078431"
       d="m 60.711074,204.52001 3.813547,-0.0343 v -1.64872 l 0.369052,1.71741 0.205031,-3.60658 0.328044,5.42705 0.123018,-1.82047 h 1.886269 l 0.04102,0.79001 0.04101,-2.71352 0.082,1.78612 0.205028,-0.8587 0.08201,2.16394 0.328046,-1.54568 0.164023,0.37783 h 1.558221"
       id="path4580"
       inkscape:connector-curvature="0" />
    <path
       style="fill:none;stroke:#ff8750;stroke-width:0.2715975;stroke-linecap:round;stroke-linejoin:miter;stroke-miterlimit:4;stroke-dasharray:none;stroke-opacity:0.96078431"
       d="M 60.409225,207.72862 H 80.967887"
       id="path4518-6-3"
       inkscape:connector-curvature="0" />
    <path
       style="fill:none;stroke:#ff8750;stroke-width:0.22973035;stroke-linecap:round;stroke-linejoin:miter;stroke-miterlimit:4;stroke-dasharray:none;stroke-opacity:0.96078431"
       d="M 60.392331,209.15651 H 75.101224"
       id="path4518-2-2"
       inkscape:connector-curvature="0" />
    <path
       style="fill:none;stroke:#ff8750;stroke-width:0.22973035;stroke-linecap:round;stroke-linejoin:miter;stroke-miterlimit:4;stroke-dasharray:none;stroke-opacity:0.96078431"
       d="M 60.562048,210.52491 H 75.270942"
       id="path4518-2-0"
       inkscape:connector-curvature="0" />
    <path
       style="fill:none;stroke:#ff8750;stroke-width:0.2715975;stroke-linecap:round;stroke-linejoin:miter;stroke-miterlimit:4;stroke-dasharray:none;stroke-opacity:0.96078431"
       d="M 60.409225,211.8933 H 80.967888"
       id="path4518-6-3-0"
       inkscape:connector-curvature="0" />
    <text
       xml:space="preserve"
       style="font-style:normal;font-weight:normal;font-size:2.11666664px;line-height:1.25;font-family:sans-serif;letter-spacing:0px;word-spacing:0px;fill:#000000;fill-opacity:1;stroke:none;stroke-width:0.26458332;"
       x="32.269718"
       y="214.08147"
       id="text4641"><tspan
         sodipodi:role="line"
         id="tspan4639"
         x="32.269718"
         y="216.65627"
         style="stroke-width:0.26458332;font-size:2.11666664px;" /></text>
    <text
       xml:space="preserve"
       style="font-style:normal;font-weight:normal;font-size:1.8378427px;line-height:1.25;font-family:sans-serif;letter-spacing:0px;word-spacing:0px;fill:#ff8750;fill-opacity:0.96078431;stroke:none;stroke-width:0.22973034"
       x="30.999498"
       y="189.72116"
       id="text4645"
       transform="scale(0.97512721,1.0255072)"><tspan
         sodipodi:role="line"
         id="tspan4643"
         x="30.999498"
         y="189.72116"
         style="font-size:1.8378427px;fill:#ff8750;fill-opacity:0.96078431;stroke-width:0.22973034">80%</tspan></text>
    <rect
       style="fill:url(#linearGradient4655);fill-opacity:1;fill-rule:evenodd;stroke-width:0.22973035"
       id="rect4647"
       width="13.881011"
       height="1.0517417"
       x="29.828426"
       y="190.73207"
       rx="0.11200814" />
    <text
       xml:space="preserve"
       style="font-style:normal;font-weight:normal;font-size:2.82222223px;line-height:1.25;font-family:sans-serif;letter-spacing:0px;word-spacing:0px;fill:#000000;fill-opacity:1;stroke:none;stroke-width:0.26458332"
       x="86.840034"
       y="219.18414"
       id="text4659"><tspan
         sodipodi:role="line"
         id="tspan4657"
         x="86.840034"
         y="221.75894"
         style="stroke-width:0.26458332" /></text>
    <text
       xml:space="preserve"
       style="font-style:normal;font-weight:normal;font-size:1.8378427px;line-height:1.25;font-family:sans-serif;letter-spacing:0px;word-spacing:0px;fill:#ff8750;fill-opacity:0.96078431;stroke:none;stroke-width:0.22973034"
       x="78.241425"
       y="190.496"
       id="text4663"
       transform="scale(0.97512721,1.0255072)"><tspan
         sodipodi:role="line"
         id="tspan4661"
         x="78.241425"
         y="190.496"
         style="fill:#ff8750;fill-opacity:0.96078431;stroke-width:0.22973034">21:45:44</tspan></text>
    <path
       style="fill:#ff8750;fill-opacity:0.96078431;stroke:none;stroke-width:0.03580585"
       d="m 50.084331,196.08514 c 0,-0.0388 0.517906,-0.79817 0.786826,-1.15361 1.058404,-1.39889 2.381339,-2.62638 3.835339,-3.55863 1.80241,-1.15564 3.774433,-1.85962 5.922246,-2.11413 0.527768,-0.0625 1.780676,-0.11763 1.780676,-0.0782 0,0.014 -0.02179,0.062 -0.04844,0.10678 -0.02665,0.0447 -0.06757,0.16841 -0.09095,0.27486 -0.04641,0.21134 -0.07608,0.23857 -0.354849,0.32562 -0.144431,0.0451 -0.183077,0.076 -0.224204,0.17959 -0.02733,0.0688 -0.04969,0.1802 -0.04969,0.24758 0,0.0727 -0.0421,0.19231 -0.103649,0.29439 -0.102353,0.16973 -0.103279,0.17592 -0.07394,0.49372 0.03576,0.38742 0.06631,0.47532 0.232476,0.66875 0.127557,0.14848 0.128367,0.14879 0.387054,0.14879 0.221257,0 0.289356,0.0165 0.46486,0.11255 0.12141,0.0664 0.283944,0.12105 0.396846,0.13331 0.185129,0.0201 0.192939,0.0173 0.245196,-0.0891 0.05511,-0.11207 0.104583,-0.13996 0.441336,-0.24884 0.105616,-0.0341 0.278759,-0.11829 0.384755,-0.18698 0.105998,-0.0687 0.2146,-0.12492 0.241338,-0.12492 0.09298,0 0.370448,0.19662 0.608445,0.43117 0.246051,0.24247 0.73236,0.63687 0.893005,0.72424 0.131598,0.0716 0.508123,0.14244 0.611612,0.11513 0.07017,-0.0185 0.08899,-0.0464 0.08899,-0.13167 0,-0.15653 0.169406,-0.33895 0.426772,-0.45956 0.120538,-0.0564 0.285772,-0.1505 0.367187,-0.20891 0.08142,-0.0584 0.254248,-0.148 0.384069,-0.19908 0.276649,-0.10884 0.532818,-0.25872 0.532818,-0.31174 0,-0.0755 -0.230828,-0.33663 -0.357881,-0.40485 -0.07201,-0.0386 -0.130931,-0.0877 -0.130931,-0.1089 0,-0.0212 0.04096,-0.11214 0.09104,-0.20199 0.07089,-0.12723 0.08605,-0.19131 0.06849,-0.28971 l -0.02253,-0.12634 0.202094,0.0934 c 2.341709,1.0827 4.475456,2.91032 5.988789,5.1296 0.167749,0.246 0.305228,0.45973 0.30551,0.47496 2.24e-4,0.0152 -1.920266,0.0235 -4.267881,0.0183 l -4.268391,-0.009 -0.02652,-0.51406 -0.02652,-0.51407 0.08656,-0.0799 c 0.12789,-0.11806 0.228118,-0.30909 0.227796,-0.43417 -1.42e-4,-0.0605 -0.02348,-0.20104 -0.05183,-0.31212 -0.02835,-0.11107 -0.05173,-0.33042 -0.05196,-0.48743 -4.48e-4,-0.27249 -0.0045,-0.28712 -0.08998,-0.32129 -0.04926,-0.0197 -0.139599,-0.0353 -0.200761,-0.0346 -0.108229,8.9e-4 -0.11753,0.0149 -0.347877,0.51678 -0.130169,0.28359 -0.275684,0.55664 -0.323358,0.60678 l -0.08669,0.0912 -0.130884,-0.0989 c -0.207327,-0.15674 -0.539764,-0.60643 -0.639262,-0.86473 -0.0843,-0.21884 -0.110032,-0.24868 -0.40027,-0.46408 -0.49894,-0.37027 -0.7018,-0.38619 -1.010338,-0.0793 -0.100092,0.0996 -0.213261,0.181 -0.251488,0.181 -0.03823,0 -0.154546,-0.064 -0.258489,-0.14219 -0.103945,-0.0782 -0.322542,-0.22034 -0.485769,-0.31587 -0.266951,-0.15621 -0.324855,-0.17559 -0.576103,-0.19276 -0.405269,-0.0277 -0.504328,0.0244 -0.656873,0.34528 -0.06549,0.13775 -0.139084,0.31655 -0.163537,0.39735 -0.09539,0.31508 -0.169511,0.41463 -0.501884,0.67392 -0.375789,0.29317 -0.475797,0.4166 -0.602683,0.74393 -0.07982,0.20591 -0.0883,0.26734 -0.06951,0.50383 l 0.02139,0.26933 -0.139465,0.20481 c -0.155119,0.22781 -0.16774,0.28207 -0.07836,0.3368 0.04602,0.0282 0.0094,0.0365 -0.148391,0.0337 -0.181684,-0.004 -0.193272,-0.007 -0.08729,-0.0308 0.113045,-0.025 0.108314,-0.0274 -0.06316,-0.0319 -0.115736,-0.003 -0.17726,0.009 -0.163786,0.0319 0.01433,0.0244 -1.390428,0.0367 -4.187772,0.0367 -2.315141,0 -4.209348,-0.01 -4.209348,-0.0214 z m 16.765731,-0.29988 c 0.194199,-0.21959 0.213628,-0.27885 0.152997,-0.46667 -0.03006,-0.0931 -0.05465,-0.2268 -0.05465,-0.29709 0,-0.0744 -0.04421,-0.21017 -0.105911,-0.32515 -0.05825,-0.10855 -0.117518,-0.2694 -0.131705,-0.35746 -0.02365,-0.14684 -0.03512,-0.16105 -0.138495,-0.1716 -0.06198,-0.006 -0.113391,0.002 -0.114234,0.0183 -0.02711,0.52907 -0.07313,0.81683 -0.148814,0.93045 -0.0718,0.10781 -0.07461,0.14591 -0.01075,0.14591 0.04589,0 0.11215,0.11686 0.192891,0.3402 0.03174,0.0878 0.02788,0.10043 -0.0306,0.10043 -0.08836,0 -0.122371,0.0635 -0.06975,0.13013 0.02596,0.0328 0.105177,0.0534 0.205964,0.0534 0.133731,0 0.180147,-0.0185 0.253069,-0.10098 z"
       id="path4693"
       inkscape:connector-curvature="0" />
    <ellipse
       style="fill:#ff8750;fill-opacity:0.96078431;fill-rule:evenodd;stroke-width:0.19938482"
       id="path4695"
       cx="73.374458"
       cy="188.92859"
       rx="1.6801224"
       ry="1.7669262" />
    <path
       style="fill:#f6834e;fill-opacity:1;stroke:none;stroke-width:0.00886748"
       d="m 53.309644,189.58769 -0.08293,-0.0919 0.210367,-0.22527 0.210367,-0.22527 0.07331,0.0757 0.07331,0.0757 0.0608,-0.0593 c 0.078,-0.076 0.161108,-0.16502 0.224365,-0.24018 l 0.05002,-0.0594 -0.07332,-0.0757 -0.07332,-0.0757 0.209548,-0.2244 0.209548,-0.22439 0.01512,0.004 c 0.01953,0.006 0.326729,0.32322 0.332734,0.34364 l 0.0045,0.0159 -0.209546,0.22439 -0.209549,0.22439 -0.07351,-0.0759 -0.0735,-0.0759 -0.09946,0.10066 c -0.05467,0.0554 -0.128883,0.13534 -0.164757,0.17783 l -0.06531,0.0772 0.07047,0.0778 0.07047,0.0778 -0.210335,0.22524 -0.210344,0.22525 -0.08167,-0.084 c -0.04493,-0.0462 -0.08666,-0.087 -0.09263,-0.0907 -0.0059,-0.004 -0.04854,-0.0476 -0.09441,-0.0979 z"
       id="path4767"
       inkscape:connector-curvature="0" />
    <ellipse
       style="opacity:0.51700003;fill:#212121;fill-opacity:1;fill-rule:evenodd;stroke-width:0.24760029"
       id="path4769"
       cx="72.728134"
       cy="188.34781"
       rx="0.44803259"
       ry="0.47118029" />
    <ellipse
       style="opacity:0.51700003;fill:#212121;fill-opacity:1;fill-rule:evenodd;stroke-width:0.37140045"
       id="path4769-4"
       cx="73.726135"
       cy="189.42796"
       rx="0.67204893"
       ry="0.70677042" />
    <rect
       style="opacity:0.57099998;fill:#ff8750;fill-opacity:0.96078431;fill-rule:evenodd;stroke-width:0.22973035"
       id="rect4542-7-0"
       width="3.3602448"
       height="3.5338523"
       x="85.321831"
       y="209.68805" />
    <rect
       style="fill:#ff8750;fill-opacity:0.96078431;fill-rule:evenodd;stroke-width:0.22973035"
       id="rect4542-2-4"
       width="3.3602448"
       height="3.5338523"
       x="86.521912"
       y="207.98419" />
    <path
       style="fill:none;stroke:#ff8850;stroke-width:0.04594607;stroke-linecap:butt;stroke-linejoin:miter;stroke-miterlimit:4;stroke-dasharray:none;stroke-opacity:0.9754902"
       d="m 86.52195,207.98394 -1.20009,1.70382"
       id="path4574-6"
       inkscape:connector-curvature="0" />
    <path
       style="fill:none;stroke:#ff8850;stroke-width:0.04594607;stroke-linecap:butt;stroke-linejoin:miter;stroke-miterlimit:4;stroke-dasharray:none;stroke-opacity:0.97276689"
       d="m 86.52195,211.51779 -1.20009,1.70382"
       id="path4576-8"
       inkscape:connector-curvature="0" />
    <path
       style="fill:none;stroke:#ff8750;stroke-width:0.04594607;stroke-linecap:butt;stroke-linejoin:miter;stroke-miterlimit:4;stroke-dasharray:none;stroke-opacity:0.96179714"
       d="m 89.882207,211.51779 -1.200087,1.70382"
       id="path4578-3"
       inkscape:connector-curvature="0" />
    <ellipse
       style="fill:#ff8750;fill-opacity:0.96078431;fill-rule:evenodd;stroke-width:0.31975889"
       id="path4878"
       cx="45.765759"
       cy="207.93892"
       rx="0.51007372"
       ry="0.5453831" />
    <path
       style="fill:none;stroke:#ff8750;stroke-width:0.08438928;stroke-linecap:butt;stroke-linejoin:miter;stroke-miterlimit:4;stroke-dasharray:none;stroke-opacity:0.96078431"
       d="m 46.068534,208.35952 c 0.659553,0.90556 1.319146,1.81116 1.978773,2.71682"
       id="path4880"
       inkscape:connector-curvature="0"
       inkscape:path-effect="#path-effect4882"
       inkscape:original-d="m 46.068534,208.35952 c 0.659794,0.90538 1.319385,1.81099 1.978773,2.71682" />
    <ellipse
       style="fill:#ff8750;fill-opacity:0.96078431;fill-rule:evenodd;stroke-width:0.47963831"
       id="path4878-1"
       cx="48.482231"
       cy="211.52397"
       rx="0.76511061"
       ry="0.8180747" />
    <path
       style="fill:none;stroke:#ff8750;stroke-width:0.08438928;stroke-linecap:butt;stroke-linejoin:miter;stroke-miterlimit:4;stroke-dasharray:none;stroke-opacity:0.96078431"
       d="m 50.830357,208.10003 c -0.659558,0.90556 -1.319151,1.81117 -1.978773,2.71682"
       id="path4880-8"
       inkscape:connector-curvature="0"
       inkscape:path-effect="#path-effect4882-3"
       inkscape:original-d="m 50.830357,208.10003 c -0.659794,0.90539 -1.319385,1.811 -1.978773,2.71682" />
    <ellipse
       style="fill:#ff8750;fill-opacity:0.96078431;fill-rule:evenodd;stroke-width:0.31975889"
       id="path4878-0"
       cx="51.086784"
       cy="207.71936"
       rx="0.51007372"
       ry="0.5453831" />
    <path
       style="fill:none;stroke:#ff8750;stroke-width:0.08438928;stroke-linecap:butt;stroke-linejoin:miter;stroke-miterlimit:4;stroke-dasharray:none;stroke-opacity:0.96078431"
       d="m 48.440501,212.33593 c 0.0077,1.14775 0.01541,2.29556 0.02311,3.44339"
       id="path4880-8-8"
       inkscape:connector-curvature="0"
       inkscape:path-effect="#path-effect4882-3-1"
       inkscape:original-d="m 48.440501,212.33593 c 0.008,1.14775 0.01568,2.29556 0.02311,3.44339" />
    <ellipse
       style="fill:#ff8750;fill-opacity:0.96078431;fill-rule:evenodd;stroke-width:0.31975889"
       id="path4878-0-0"
       cx="48.519516"
       cy="216.0522"
       rx="0.51007372"
       ry="0.5453831" />
    <path
       style="fill:none;stroke:#ff8750;stroke-width:0.08438928;stroke-linecap:butt;stroke-linejoin:miter;stroke-miterlimit:4;stroke-dasharray:none;stroke-opacity:0.96078431"
       d="m 49.247892,211.55216 c 1.073414,-0.0127 2.146867,-0.0253 3.220347,-0.038"
       id="path4880-8-8-3"
       inkscape:connector-curvature="0"
       inkscape:path-effect="#path-effect4882-3-1-5"
       inkscape:original-d="m 49.247892,211.55216 c 1.073411,-0.0129 2.146864,-0.0256 3.220347,-0.038" />
    <ellipse
       style="fill:#ff8750;fill-opacity:0.96078431;fill-rule:evenodd;stroke-width:0.31975889"
       id="path4878-0-6"
       cx="52.586185"
       cy="211.50815"
       rx="0.51007372"
       ry="0.5453831" />
    <path
       style="fill:#4d4d4d;stroke:#212121;stroke-width:0.26143315;stroke-miterlimit:4;stroke-dasharray:none;stroke-opacity:1"
       d="m 32.874102,288.2533 c -0.929554,-0.33667 -1.173147,-0.665 -1.273343,-1.71629 -0.08257,-0.86628 0.01987,-5.42146 0.354997,-15.78637 0.101089,-3.12649 0.236169,-8.10202 0.30018,-11.05673 0.135499,-6.25482 0.281045,-7.84444 0.926557,-10.11973 0.06984,-0.24617 0.182771,-0.2501 7.626043,-0.26542 5.474191,-0.0113 7.579944,0.0231 7.645152,0.12494 0.0495,0.0773 0.170972,0.42158 0.269944,0.76515 0.377996,1.3122 0.566761,3.53933 0.688293,8.12078 0.06744,2.54242 0.232886,8.22071 0.367646,12.61843 0.356122,11.62143 0.418962,15.6419 0.254022,16.25258 -0.116551,0.43151 -0.237808,0.56677 -0.781473,0.87163 -0.526663,0.29532 -0.792755,0.36139 -1.465417,0.36376 -0.985402,0.004 -1.155387,-0.1274 -1.400969,-1.07882 -0.09474,-0.36704 -1.022262,-5.89588 -2.061165,-12.2863 -2.184545,-13.43744 -2.180679,-13.41647 -2.527502,-13.71161 -0.286067,-0.24344 -1.089503,-0.29292 -1.461154,-0.09 -0.66799,0.36473 -0.955236,1.79725 -3.606696,17.98692 -1.281056,7.82208 -1.441486,8.62523 -1.786526,8.9438 -0.346177,0.31962 -1.281783,0.34824 -2.068589,0.0633 z"
       id="path5195"
       inkscape:connector-curvature="0" />
    <path
       style="fill:#1a1a1a;stroke:#212121;stroke-width:0.24558175;stroke-miterlimit:4;stroke-dasharray:none;stroke-opacity:1"
       d="m 33.561763,249.5767 c -0.58334,-0.0692 -0.787435,-0.18081 -0.874011,-0.47781 -0.03755,-0.1288 -0.09075,-0.85704 -0.118234,-1.61835 -0.0275,-0.76131 -0.06538,-1.40961 -0.08421,-1.44069 -0.04311,-0.0712 8.212091,-0.0368 11.806653,0.0491 4.302347,0.10286 4.607507,0.17093 4.743359,1.05788 0.09137,0.59654 0.08155,2.01181 -0.01487,2.14636 -0.05232,0.073 -0.218538,0.12768 -0.505137,0.16618 -1.027861,0.1381 -13.925927,0.23926 -14.95356,0.1173 z"
       id="path5219"
       inkscape:connector-curvature="0" />
    <path
       style="fill:#ffffff;stroke:#212121;stroke-width:0.26212233;stroke-miterlimit:4;stroke-dasharray:none;stroke-opacity:1"
       d="m 48.103723,246.07582 c -0.661399,-0.15761 -5.217552,-0.28337 -10.397089,-0.28697 -4.084745,-0.003 -5.219357,-0.0317 -5.244399,-0.13345 -0.01758,-0.0714 -0.129955,-0.66728 -0.249724,-1.32418 -0.264882,-1.45278 -0.838785,-3.31656 -2.446478,-7.94509 -1.479042,-4.25815 -1.71047,-5.12902 -1.70732,-6.42457 0.003,-1.22032 0.395388,-3.35558 0.725091,-3.94541 0.526573,-0.94203 1.801465,-2.73106 2.37908,-3.33853 0.351582,-0.36975 0.859058,-0.77044 1.19626,-0.94457 l 0.585646,-0.3024 6.715358,-0.0613 c 3.693449,-0.0337 6.937558,-0.0222 7.209136,0.0258 0.271577,0.048 0.808746,0.24963 1.193707,0.44817 0.87431,0.45088 1.840921,1.48261 3.282486,3.50361 l 1.015499,1.42367 0.232537,1.17277 c 0.60216,3.03693 0.574256,3.18272 -2.055304,10.73782 -1.114359,3.20172 -1.575661,4.7612 -1.871481,6.32672 l -0.217361,1.1503 z"
       id="path5251"
       inkscape:connector-curvature="0" />
    <path
       style="fill:#ffffff;stroke:#212121;stroke-width:0.2391493;stroke-miterlimit:4;stroke-dasharray:none;stroke-opacity:1"
       d="m 36.067045,221.08508 c -0.09773,-0.071 -0.139937,-0.36651 -0.148133,-1.03711 -0.0098,-0.80157 0.01863,-0.98046 0.195813,-1.23157 0.265053,-0.37564 0.525037,-0.40387 1.689411,-0.1834 0.795219,0.15059 1.337367,0.1687 3.521215,0.11759 1.419701,-0.0332 2.887998,-0.11061 3.26288,-0.17195 0.801108,-0.13112 0.936706,-0.054 1.205123,0.68514 0.123569,0.34027 0.149481,0.61833 0.102075,1.09533 -0.03495,0.3516 -0.07454,0.65037 -0.088,0.66394 -0.0842,0.0848 -9.625333,0.14562 -9.740387,0.062 z"
       id="path5253"
       inkscape:connector-curvature="0" />
    <path
       style="fill:#1a1a1a;stroke:#212121;stroke-width:0.23432496;stroke-miterlimit:4;stroke-dasharray:none;stroke-opacity:1"
       d="m 40.049662,216.35904 c -0.741479,-0.19814 -1.406906,-0.69262 -1.914147,-1.42239 -0.175439,-0.25241 -0.6591,-1.14618 -1.014289,-1.87432 -0.347252,-0.71186 -0.498772,-1.17541 -0.571929,-1.74965 -0.103027,-0.80876 0.101595,-2.16659 0.532742,-3.53516 0.469624,-1.4907 0.883969,-2.13653 1.483932,-2.31294 0.998644,-0.29365 2.923013,-0.36334 4.206829,-0.15235 0.388018,0.0637 0.767397,0.1496 0.843062,0.19075 0.268744,0.14615 0.516378,0.68535 0.914045,1.99023 0.360534,1.18303 0.449474,1.74524 0.445616,2.8169 -0.0028,0.77887 -0.02233,1.00451 -0.136691,1.57871 -0.167675,0.84196 -0.476081,1.81673 -0.907807,2.86927 l -0.335725,0.81849 -0.393664,0.25158 c -0.744966,0.47611 -0.832323,0.51161 -1.300105,0.52836 -0.234715,0.008 -0.682284,0.0298 -0.994597,0.0475 -0.42493,0.0241 -0.640687,0.0128 -0.857272,-0.045 z"
       id="path5281"
       inkscape:connector-curvature="0" />
    <path
       style="fill:#ffb380;stroke:#212121;stroke-width:0.23432496;stroke-miterlimit:4;stroke-dasharray:none;stroke-opacity:1"
       d="m 38.833075,218.57016 c -0.84541,-0.0945 -0.890527,-0.10642 -0.865367,-0.22892 0.01266,-0.0616 0.102617,-0.68451 0.199928,-1.38425 0.09731,-0.69974 0.181702,-1.29106 0.187537,-1.31404 0.0058,-0.023 0.150154,0.076 0.320711,0.21996 0.402328,0.33958 0.949037,0.6133 1.436791,0.71936 0.341865,0.0743 0.479082,0.0769 1.124457,0.021 0.404291,-0.035 0.800915,-0.0504 0.881381,-0.0343 0.161599,0.0324 0.639768,-0.18617 1.132257,-0.51748 0.151302,-0.10179 0.291431,-0.18508 0.311396,-0.18508 0.04727,0 0.404615,2.50832 0.363473,2.55132 -0.110664,0.11568 -4.299446,0.24099 -5.092564,0.15235 z"
       id="path5285"
       inkscape:connector-curvature="0" />
    <path
       style="fill:#ffb380;stroke:none;stroke-width:0.00717907"
       d="m 36.325382,212.24249 c -0.161316,-0.0433 -0.349798,-0.42254 -0.439733,-0.88482 -0.05904,-0.3035 -0.08421,-0.58365 -0.08952,-0.99665 -0.0048,-0.37774 0.0063,-0.55005 0.04797,-0.7399 0.06082,-0.27722 0.208661,-0.40429 0.394517,-0.33906 0.06513,0.0229 0.126435,0.059 0.223671,0.13213 0.03832,0.0288 0.07209,0.0541 0.07505,0.0564 0.003,0.002 -0.0084,0.0916 -0.02529,0.19877 -0.07773,0.49334 -0.105912,0.8462 -0.09999,1.25216 0.0046,0.31415 0.02155,0.46979 0.08511,0.78046 0.02025,0.099 0.0876,0.36315 0.104867,0.41133 0.0051,0.0141 -0.08028,0.0792 -0.143397,0.10946 -0.0542,0.026 -0.09024,0.0313 -0.133261,0.0198 z"
       id="path5309"
       inkscape:connector-curvature="0" />
    <path
       style="fill:#ffb380;stroke:none;stroke-width:0.00717907"
       d="m 44.903224,212.14551 c 0,-0.002 0.0077,-0.0381 0.01709,-0.0799 0.07378,-0.32849 0.130672,-0.69206 0.150743,-0.96325 0.01447,-0.19564 0.02288,-0.64535 0.01872,-1.00126 l -0.0041,-0.35706 0.05407,-0.0747 c 0.118816,-0.16413 0.191767,-0.24194 0.267487,-0.28527 0.09293,-0.0531 0.175414,-0.0323 0.224294,0.0567 0.155027,0.28248 0.09854,1.18257 -0.111878,1.78268 -0.143711,0.40986 -0.386522,0.82141 -0.529232,0.897 -0.03376,0.0179 -0.08712,0.0333 -0.08712,0.0251 z"
       id="path5330"
       inkscape:connector-curvature="0" />
    <path
       style="fill:#1a1a1a;stroke:#212121;stroke-width:0.17229776;stroke-miterlimit:4;stroke-dasharray:none;stroke-opacity:1"
       d="m 33.181782,290.04886 c -1.047162,-0.20769 -2.079322,-0.72658 -3.22808,-1.62285 -0.41583,-0.32444 -1.209688,-0.91182 -1.764129,-1.3053 -1.148751,-0.81525 -1.746565,-1.3926 -2.058087,-1.98762 -0.480037,-0.9169 -0.508443,-1.80605 -0.0693,-2.16933 0.430385,-0.35602 1.339071,0.002 3.53168,1.39044 1.681435,1.06495 1.815651,1.16475 1.817942,1.35195 0.0058,0.47766 0.111137,1.34372 0.196032,1.61253 0.141561,0.44822 0.463247,0.76018 1.011035,0.98048 1.096559,0.441 2.22786,0.36888 2.534592,-0.16156 l 0.106381,-0.18396 0.02642,0.14533 c 0.04006,0.22034 -0.04246,0.734 -0.178879,1.1137 -0.13989,0.38932 -0.334101,0.65588 -0.572218,0.78538 -0.237738,0.12929 -0.843077,0.15201 -1.353384,0.0508 z"
       id="path5376"
       inkscape:connector-curvature="0" />
    <path
       style="fill:#1a1a1a;stroke:#212121;stroke-width:0.17229776;stroke-miterlimit:4;stroke-dasharray:none;stroke-opacity:1"
       d="m 47.313911,290.7702 c -0.610319,-0.14613 -0.892577,-0.43392 -1.010257,-1.03006 -0.08583,-0.4348 -0.04356,-1.16417 0.08216,-1.41782 l 0.09783,-0.19736 0.122407,0.12093 c 0.237981,0.23513 0.501507,0.30326 1.172994,0.30326 0.711682,0 1.065204,-0.083 1.552074,-0.36449 0.459904,-0.26587 0.718342,-0.55407 0.817031,-0.91107 l 0.08412,-0.30432 0.655506,-0.24756 c 3.021108,-1.14095 3.886602,-1.41023 4.659796,-1.44981 0.614767,-0.0314 0.759649,0.0214 0.91314,0.33319 0.261253,0.53067 -0.03611,1.38402 -0.740306,2.12449 -0.52279,0.54973 -0.873541,0.75898 -2.262364,1.34966 -0.591084,0.25139 -1.414925,0.62186 -1.830755,0.82325 -0.84063,0.40715 -1.509129,0.65801 -2.132908,0.8004 -0.550821,0.12574 -1.778202,0.16362 -2.180461,0.0673 z"
       id="path5378"
       inkscape:connector-curvature="0" />
    <path
       style="fill:#4d4d4d;fill-opacity:1;stroke:none;stroke-width:0.04061097"
       d="m 50.938394,237.94329 c 0.05637,-0.15449 1.056076,-3.08052 1.192612,-3.49065 l 0.150023,-0.45063 0.400604,0.027 c 0.709677,0.0479 0.99933,0.1603 1.407399,0.54614 0.167332,0.15821 0.221921,0.18892 0.274274,0.15425 0.129715,-0.0859 0.09141,-0.17288 -0.179776,-0.40812 -0.442941,-0.38423 -0.736944,-0.49654 -1.43001,-0.54623 -0.272558,-0.0196 -0.402334,-0.0446 -0.391083,-0.0754 0.07393,-0.20261 0.290807,-0.96348 0.402884,-1.41344 0.204649,-0.82163 0.269281,-1.29837 0.269092,-1.9849 -1.93e-4,-0.69815 -0.04781,-1.05733 -0.336171,-2.53627 l -0.206256,-1.05782 -0.7652,-1.06583 c -0.420859,-0.58621 -0.746293,-1.07245 -0.723185,-1.08054 0.06153,-0.0216 0.657037,0.1927 0.915221,0.32931 0.568215,0.30066 1.546349,1.24272 1.942824,1.87117 0.302787,0.47994 0.585502,1.05531 1.056136,2.14938 1.373211,3.19228 1.775867,4.40529 1.817259,5.47453 0.02327,0.6013 -0.02856,0.86671 -0.223645,1.1454 -0.15635,0.22333 -0.343493,0.32419 -1.310511,0.70628 -0.646642,0.25551 -2.378159,0.97071 -4.09352,1.69081 -0.16499,0.0693 -0.18939,0.0715 -0.168971,0.0156 z"
       id="path5422"
       inkscape:connector-curvature="0" />
    <path
       style="fill:#4d4d4d;fill-opacity:1;stroke:none;stroke-width:0.04061097"
       d="m 28.688106,237.11218 c -1.132879,-0.47895 -2.083716,-0.86869 -3.575912,-1.46571 -0.471135,-0.18851 -0.667458,-0.34635 -0.819374,-0.65873 -0.114776,-0.23602 -0.119178,-0.26541 -0.118313,-0.7895 0.0018,-1.06042 0.318612,-2.09648 1.484746,-4.8548 0.908539,-2.14901 1.229621,-2.78102 1.718438,-3.38253 0.317306,-0.39045 0.97419,-1.01098 1.346511,-1.27199 0.248391,-0.17411 0.925876,-0.50527 1.04013,-0.50842 0.02563,-7e-4 -0.139327,0.27213 -0.366572,0.60628 -0.801545,1.17862 -0.963245,1.55451 -1.199418,2.7881 -0.19069,0.99604 -0.255224,1.59422 -0.2582,2.39325 -0.0036,0.9772 0.09956,1.56839 0.50343,2.88405 l 0.175783,0.57265 -0.322032,2.4e-4 c -0.711117,7e-4 -1.194318,0.17795 -1.629925,0.59792 l -0.236541,0.22803 0.08429,0.0908 0.08429,0.0908 0.228243,-0.21738 c 0.40233,-0.38319 0.850688,-0.53965 1.548296,-0.54033 l 0.321472,-2.3e-4 0.150065,0.4477 c 0.08254,0.24624 0.387834,1.13914 0.678445,1.98424 0.290615,0.8451 0.528389,1.54321 0.528389,1.55135 0,0.0298 -0.08334,-0.004 -1.366231,-0.54582 z"
       id="path5424"
       inkscape:connector-curvature="0" />
    <path
       style="fill:#ff8750;stroke:#212121;stroke-width:2;fill-opacity:0.96078432;stroke-opacity:1;stroke-miterlimit:4;stroke-dasharray:none"
       d="m 353.25153,420.14297 c -9.34269,-1.105 -18.91511,-3.90536 -24.92551,-7.29182 -4.79312,-2.7006 -12.761,-8.05823 -15.61348,-10.49855 -8.13817,-6.96227 -13.49055,-18.2655 -14.94656,-31.56434 -1.33642,-12.20643 0.92559,-20.32956 8.7415,-31.39179 3.2184,-4.55515 9.74587,-11.07301 13.26224,-13.2427 4.90741,-3.028 10.69671,-5.16957 17.39513,-6.43479 2.50501,-0.47316 5.80171,-0.6277 15.49547,-0.72642 11.67753,-0.11891 12.3043,-0.0928 12.1356,0.50493 -0.0978,0.34668 -0.28069,1.18716 -0.40633,1.86775 -0.12565,0.68059 -0.38028,1.72956 -0.56585,2.33104 l -0.3374,1.0936 -7.85744,0.22416 c -11.48692,0.3277 -17.40107,1.44443 -23.78432,4.49103 -14.39767,6.87173 -24.90854,21.19831 -24.90854,33.95097 0,7.07844 4.49173,20.47395 9.32468,27.80861 2.03859,3.09384 4.85368,5.73434 7.48711,7.02275 1.07931,0.52806 3.90328,1.55751 6.27549,2.28768 2.37221,0.73017 6.0375,1.92542 8.14509,2.65611 4.4976,1.55929 5.86791,1.47658 7.1501,-0.43158 1.07568,-1.60086 1.43127,-3.77266 2.81848,-17.21421 1.48364,-14.37594 2.3167,-20.53019 3.76367,-27.80416 1.0763,-5.41056 1.145,-5.59668 5.41572,-14.67246 4.84305,-10.29206 6.49591,-14.45173 7.75468,-19.51574 2.36617,-9.51919 2.42856,-16.77293 0.31559,-36.69925 -1.2768,-12.04095 -1.33029,-22.00354 -0.15374,-28.63602 l 0.815,-4.59439 2.66961,-3.89089 c 7.10133,-10.35005 12.42585,-15.12335 20.43245,-18.31719 8.80284,-3.51146 19.95572,-3.7317 27.63199,-0.54565 10.54996,4.37879 17.76994,15.70719 21.29614,33.41439 2.77121,13.91591 4.19978,36.37218 3.79741,59.69285 -0.67879,39.34176 -4.71989,56.87152 -16.34153,70.88746 -8.6554,10.43859 -22.16211,18.53685 -37.45312,22.45588 -8.24448,2.11302 -13.27871,2.70412 -24.04595,2.82337 -5.25027,0.0582 -10.10279,0.0399 -10.78338,-0.0406 z"
       id="path4653"
       inkscape:connector-curvature="0"
       transform="matrix(0.26458333,0,0,0.26458333,0,164.70832)" />
    <path
       style="fill:#212121;stroke:#212121;stroke-width:1.054;fill-opacity:1;stroke-opacity:1;stroke-miterlimit:4;stroke-dasharray:none"
       d="m 332.73769,400.24815 c -4.37949,-1.48897 -8.69104,-3.13406 -9.58124,-3.65575 -3.5587,-2.08553 -6.96741,-6.82992 -10.10346,-14.06242 -4.4921,-10.35988 -5.86461,-19.05211 -4.0474,-25.63262 0.99313,-3.59635 3.77445,-9.21993 6.05659,-12.24589 3.89539,-5.16503 9.63273,-10.01191 15.62394,-13.19905 6.64418,-3.53451 11.59855,-4.62158 23.56043,-5.16954 4.72803,-0.21659 8.66934,-0.32087 8.75847,-0.23175 0.30007,0.30007 -2.02839,6.41335 -4.30872,11.3124 -1.24453,2.67375 -3.29368,7.07017 -4.55366,9.76982 -1.99263,4.26945 -2.42803,5.59272 -3.3445,10.16466 -1.37676,6.86812 -2.27501,13.20252 -3.37748,23.81776 -2.00349,19.29071 -2.10194,19.92824 -3.2896,21.30159 -0.92345,1.06783 -3.08003,0.65723 -11.39337,-2.16921 z"
       id="path4655"
       inkscape:connector-curvature="0"
       transform="matrix(0.26458333,0,0,0.26458333,0,164.70832)" />
  </g>
</svg>
