<?xml version="1.0" encoding="UTF-8" standalone="no"?>
<!-- Created with Inkscape (http://www.inkscape.org/) -->

<svg
   xmlns:dc="http://purl.org/dc/elements/1.1/"
   xmlns:cc="http://creativecommons.org/ns#"
   xmlns:rdf="http://www.w3.org/1999/02/22-rdf-syntax-ns#"
   xmlns:svg="http://www.w3.org/2000/svg"
   xmlns="http://www.w3.org/2000/svg"
   xmlns:sodipodi="http://sodipodi.sourceforge.net/DTD/sodipodi-0.dtd"
   xmlns:inkscape="http://www.inkscape.org/namespaces/inkscape"
   width="100"
   height="200"
   viewBox="0 0 26.458333 52.916668"
   version="1.1"
   id="svg8"
   sodipodi:docname="illustration-music.svg"
   inkscape:version="0.92.1 r15371">
  <g
     inkscape:label="Layer 1"
     inkscape:groupmode="layer"
     id="layer1"
     transform="translate(0,-244.08332)">
    <path
       style="fill:#ff8750;stroke:none;stroke-width:0.09449405;fill-opacity:1"
       d="m 13.869025,293.61246 c -1.474005,-0.24171 -3.032731,-0.89673 -4.2157898,-1.77158 -1.2307404,-0.91011 -3.2710702,-3.23917 -4.5384246,-5.18065 -1.1755944,-1.80092 -1.8425168,-3.2679 -2.3218495,-5.1072 -0.234832,-0.9011 -0.258346,-1.14401 -0.256129,-2.64583 0.0021,-1.42148 0.03271,-1.76519 0.218012,-2.44813 0.4005427,-1.47619 1.0492074,-2.64988 2.0276698,-3.66884 0.5703027,-0.59391 0.5712357,-0.59441 0.7674194,-0.41068 0.303394,0.28414 0.7207977,0.40575 1.1649854,0.33943 0.230059,-0.0344 0.4015997,-0.022 0.4015997,0.0288 0,0.19765 1.2717734,1.44473 1.8214311,1.78607 1.1491525,0.71363 2.0453185,0.97155 3.3757415,0.97155 1.117805,0 1.783101,-0.1627 2.894657,-0.7079 1.472231,-0.7221 2.740965,-2.07079 3.525888,-3.74811 1.211272,-2.58838 1.227444,-5.77727 0.04731,-9.32986 -0.984088,-2.96243 -3.172826,-6.29995 -5.18983,-7.91375 -1.340423,-1.07247 -2.452101,-1.53106 -6.7568793,-2.78737 -4.3849626,-1.27971 -5.21248,-1.68043 -5.7297227,-2.77454 -0.12284805,-0.25986 -0.22377605,-0.58941 -0.22428405,-0.73233 l -9.23e-4,-0.25986 H 10.352935 l 9.473028,1e-5 0.271673,0.34048 c 0.278022,0.34844 0.745949,0.60445 1.104798,0.60445 0.346054,0 0.853484,-0.30013 1.065734,-0.63034 l 0.203628,-0.31681 0.992188,0.0247 0.992187,0.0247 v 16.9578 16.95781 l -0.283482,0.0583 c -0.703947,0.14486 -1.08575,0.61439 -1.086328,1.33595 -2.91e-4,0.34235 0.05706,0.50982 0.255093,0.74517 0.281865,0.33498 0.735915,0.56137 1.125887,0.56137 h 0.253474 l -0.06102,0.93113 c -0.280776,4.28444 -3.291872,7.77748 -7.470783,8.66653 -0.944482,0.20093 -2.429712,0.24541 -3.319991,0.0994 z m 9.652135,-20.10748 c 0.04531,-0.0733 0.01769,-0.0911 -0.08201,-0.0529 -0.174299,0.0669 -0.399078,-0.15827 -0.306901,-0.30742 0.03438,-0.0556 0.133715,-0.0894 0.220746,-0.075 0.135039,0.0223 0.162336,-0.084 0.186182,-0.72534 0.01537,-0.41331 0.07458,-0.80767 0.131583,-0.87636 0.148072,-0.17841 0.09642,-0.18974 -0.537502,-0.11787 -0.532535,0.0604 -0.541142,0.0651 -0.141741,0.078 l 0.425223,0.0138 -0.02673,0.54347 c -0.03813,0.77508 -0.08819,0.93964 -0.302964,0.9958 -0.236289,0.0618 -0.251951,0.3999 -0.02466,0.53229 0.220805,0.1286 0.375814,0.12574 0.458772,-0.008 z m -1.163168,-0.6856 c 0.240947,-0.18273 0.301899,-0.70539 0.130189,-1.11635 -0.106238,-0.25426 -0.114841,-0.3562 -0.03288,-0.38964 0.06105,-0.0249 0.01077,-0.0487 -0.111724,-0.0528 -0.178417,-0.006 -0.207977,0.0254 -0.148604,0.1579 0.04077,0.091 0.09172,0.36415 0.113244,0.6071 0.03773,0.42597 0.02954,0.44284 -0.229372,0.47247 -0.19474,0.0223 -0.276793,0.0891 -0.298694,0.24335 -0.02396,0.1687 0.01508,0.21199 0.188988,0.20961 0.120551,-0.002 0.295537,-0.0609 0.388857,-0.13169 z m -6.207368,-20.76455 c 0.04531,-0.0733 0.01769,-0.0911 -0.08201,-0.0529 -0.174299,0.0669 -0.399079,-0.15827 -0.306902,-0.30742 0.03438,-0.0556 0.133715,-0.0894 0.220747,-0.075 0.135038,0.0223 0.162336,-0.084 0.186182,-0.72534 0.01537,-0.41331 0.07458,-0.80767 0.131582,-0.87635 0.148073,-0.17842 0.09642,-0.18975 -0.537502,-0.11788 -0.532535,0.0604 -0.541141,0.0651 -0.141741,0.078 l 0.425224,0.0138 -0.02673,0.54347 c -0.03812,0.77508 -0.08819,0.93964 -0.302964,0.9958 -0.236289,0.0618 -0.25195,0.3999 -0.02466,0.53229 0.220804,0.1286 0.375814,0.12574 0.458771,-0.008 z m -1.163167,-0.6856 c 0.240946,-0.18273 0.301898,-0.70539 0.130189,-1.11635 -0.106239,-0.25426 -0.114842,-0.3562 -0.03288,-0.38964 0.06105,-0.0249 0.01077,-0.0487 -0.111724,-0.0528 -0.178417,-0.006 -0.207978,0.0254 -0.148604,0.1579 0.04076,0.091 0.09172,0.36415 0.113244,0.60711 0.03773,0.42596 0.02954,0.44283 -0.229372,0.47247 -0.19474,0.0223 -0.276794,0.0891 -0.298695,0.24334 -0.02396,0.1687 0.01508,0.21199 0.188988,0.20961 0.120551,-0.002 0.295537,-0.0609 0.388858,-0.13169 z"
       id="path4643"
       inkscape:connector-curvature="0" />
  </g>
</svg>
