<?xml version="1.0" encoding="UTF-8" standalone="no"?>
<!-- Created with Inkscape (http://www.inkscape.org/) -->

<svg
   xmlns:dc="http://purl.org/dc/elements/1.1/"
   xmlns:cc="http://creativecommons.org/ns#"
   xmlns:rdf="http://www.w3.org/1999/02/22-rdf-syntax-ns#"
   xmlns:svg="http://www.w3.org/2000/svg"
   xmlns="http://www.w3.org/2000/svg"
   xmlns:sodipodi="http://sodipodi.sourceforge.net/DTD/sodipodi-0.dtd"
   xmlns:inkscape="http://www.inkscape.org/namespaces/inkscape"
   width="250"
   height="450"
   viewBox="0 0 66.145833 119.0625"
   version="1.1"
   id="svg8"
   inkscape:version="0.92.1 r15371"
   sodipodi:docname="illustration-space-ship.svg">
  <g
     inkscape:label="Layer 1"
     inkscape:groupmode="layer"
     id="layer1"
     transform="translate(0,-177.93749)">
    <path
       style="fill:#ffbe40;fill-opacity:0;stroke:#212121;stroke-width:0.79374999;stroke-miterlimit:4;stroke-dasharray:none;stroke-opacity:1"
       d="m 22.448447,283.7582 c -2.980906,-7.3419 -2.196562,-15.95464 2.058233,-22.60106 l 0.599797,-0.93694 4.591992,1.36622 4.59199,1.36621 0.0072,0.62957 c 0.01602,1.39198 -0.260005,3.86032 -0.621106,5.55422 -1.092327,5.124 -4.073944,10.10413 -8.0657,13.47199 -0.63834,0.53856 -1.480042,1.19788 -1.870445,1.46514 -0.390402,0.26727 -0.755007,0.51699 -0.810228,0.55495 -0.05521,0.0379 -0.272022,-0.35367 -0.481781,-0.8703 z"
       id="path4707"
       inkscape:connector-curvature="0" />
    <path
       style="fill:#ffbe40;fill-opacity:1;stroke:#212121;stroke-width:0.79374999;stroke-miterlimit:4;stroke-dasharray:none;stroke-opacity:1"
       d="m 22.353369,283.5367 c -2.969551,-7.37167 -1.997204,-16.25058 2.507984,-22.90145 1.278633,-1.8876 1.550836,-2.16319 2.127277,-2.15372 1.812626,0.0297 4.683129,0.85142 6.279239,1.79747 l 0.858043,0.50857 0.08913,1.12756 c 0.106502,1.34726 0.06698,3.2201 -0.103162,4.88826 -0.09439,0.92549 -0.330601,1.90955 -0.983927,4.09911 -0.785191,2.63174 -0.931233,3.01281 -1.68546,4.4003 -1.445463,2.65907 -2.836421,4.50912 -4.794925,6.37747 -1.10469,1.05384 -3.578962,2.96023 -3.768747,2.90377 -0.06471,-0.0192 -0.301164,-0.49055 -0.525458,-1.04733 z"
       id="path4715"
       inkscape:connector-curvature="0" />
    <path
       style="fill:#4d4d4d;stroke:#212121;stroke-width:0.26458332;stroke-miterlimit:4;stroke-dasharray:none;stroke-opacity:1"
       d="m 23.758016,258.80549 c 0.578812,-0.14542 2.652283,-0.45229 2.678773,-0.39645 0.01242,0.0262 -0.170413,0.29873 -0.406316,0.60568 l -0.428892,0.55807 -1.120461,-0.33374 -1.120455,-0.33375 z"
       id="path4717"
       inkscape:connector-curvature="0" />
    <path
       style="fill:#4d4d4d;stroke:#212121;stroke-width:0.26458332;stroke-miterlimit:4;stroke-dasharray:none;stroke-opacity:1"
       d="m 34.216534,261.4117 c -0.03623,-0.40912 -0.0462,-0.73801 -0.02214,-0.73085 0.06291,0.0187 1.884006,1.75431 2.029668,1.93436 0.08746,0.10803 -0.170946,0.0642 -0.909786,-0.15426 l -1.031714,-0.30591 z"
       id="path4719"
       inkscape:connector-curvature="0" />
    <path
       style="fill:#212121;fill-opacity:1;stroke:#212121;stroke-width:0.79374999;stroke-miterlimit:4;stroke-dasharray:none;stroke-opacity:1"
       d="m 9.5447769,267.32279 c 0.056904,-0.17478 1.2762731,-2.25604 2.7096121,-4.62507 l 2.606066,-4.3073 2.664984,-1.68921 c 4.124742,-2.61448 3.807043,-2.59562 4.007221,-0.23793 0.09395,1.10656 0.07265,2.13957 -0.04734,2.2956 -0.119982,0.15601 -2.062908,1.58412 -4.317599,3.17356 -2.254693,1.58945 -4.8748,3.53611 -5.822463,4.32594 -1.7840021,1.48684 -1.9749144,1.59971 -1.8004811,1.06441 z"
       id="path4721"
       inkscape:connector-curvature="0" />
    <path
       style="fill:#212121;fill-opacity:1;stroke:#212121;stroke-width:0.79374999;stroke-miterlimit:4;stroke-dasharray:none;stroke-opacity:1"
       d="m 42.390228,275.6549 c -0.367283,-1.23354 -1.550918,-4.47503 -2.630301,-7.20329 l -1.962509,-4.96051 1.229445,-1.58337 c 0.676193,-0.87085 1.326777,-1.57851 1.445742,-1.57258 0.118952,0.006 0.895591,1.48978 1.72584,3.29742 l 1.509541,3.28663 -0.182467,5.29192 c -0.100354,2.91056 -0.246599,5.38072 -0.324984,5.48924 -0.07838,0.10854 -0.443024,-0.81192 -0.810307,-2.04546 z"
       id="path4723"
       inkscape:connector-curvature="0" />
    <path
       style="fill:#212121;fill-opacity:1;stroke:#212121;stroke-width:0.1889125;stroke-miterlimit:4;stroke-dasharray:none;stroke-opacity:1"
       d="m 22.296066,256.28864 c -0.647905,-8.41137 -0.486878,-16.7029 0.480771,-24.7555 1.388079,-11.55139 3.166243,-17.61629 7.132616,-24.32771 4.565639,-7.72544 12.263525,-14.81082 20.01794,-18.42516 l 1.599753,-0.74565 1.324326,2.30542 c 4.346084,7.56577 6.523554,16.29867 6.255296,25.08733 -0.130836,4.28646 -0.630479,7.25203 -1.993855,11.83427 -1.043602,3.50749 -1.398704,4.44881 -2.962999,7.85444 -3.961632,8.6249 -7.712731,15.21383 -12.44977,21.86843 -1.871454,2.62903 -4.249121,5.73552 -4.363774,5.70141 -0.03883,-0.0115 -0.499869,-0.45237 -1.02453,-0.9796 -1.710817,-1.71918 -3.100078,-2.51528 -5.775383,-3.30953 -2.683299,-0.79625 -3.713899,-0.86122 -6.361608,-0.39901 -0.899748,0.15707 -1.656457,0.27948 -1.68157,0.27201 -0.0251,-0.007 -0.113859,-0.89899 -0.197213,-1.98115 z m 14.293987,-21.51323 c 0.389002,-0.13949 0.487661,-0.36433 1.071444,-2.44169 l 0.642982,-2.28803 1.166811,0.34715 c 1.123841,0.33436 1.171775,0.33047 1.301547,-0.1057 l 0.134733,-0.45285 -3.331725,-0.99126 c -2.945212,-0.87627 -3.355631,-0.96019 -3.537816,-0.72329 -0.320534,0.41678 0.04506,0.6637 1.729578,1.16815 l 1.558324,0.46676 -0.21489,1.14804 c -0.118189,0.63143 -0.344719,1.58441 -0.503398,2.11774 -0.239155,0.80383 -0.342588,0.9531 -0.60468,0.87262 -0.612998,-0.18864 -0.763628,-0.58131 -0.52709,-1.37634 0.274331,-0.92205 -0.100021,-1.28998 -0.659336,-0.64803 -0.507485,0.58248 -0.581108,0.98201 -0.307961,1.67121 0.391587,0.98803 1.287954,1.52015 2.081444,1.23561 z m 5.857562,1.43721 c 0.728632,-0.0541 0.892916,-0.74897 0.366259,-1.54913 -0.381482,-0.57958 -0.907916,-0.98565 -2.117685,-1.6335 -0.309696,-0.1658 -0.433592,-0.36515 -0.36672,-0.58991 0.134317,-0.45145 0.618191,-0.46775 1.112061,-0.0375 0.323892,0.28219 0.447497,0.30849 0.643988,0.13703 0.133748,-0.11671 0.262284,-0.27187 0.285642,-0.3448 0.07303,-0.22794 -1.058101,-1.04687 -1.421,-1.02882 -0.721691,0.0359 -1.376734,0.50154 -1.55676,1.10663 -0.219112,0.73646 0.135146,1.20912 1.392953,1.85853 0.493699,0.25489 1.037043,0.64789 1.207429,0.87334 0.302174,0.39982 0.295009,0.40256 -0.291604,0.11171 -1.987364,-0.98539 -2.066582,-1.00672 -2.190516,-0.59017 -0.06407,0.21534 -0.02309,0.45041 0.09105,0.52238 1.548726,0.9765 2.136003,1.21682 2.844895,1.16417 z m 3.519823,-21.00081 c 1.017667,-0.18789 2.489394,-1.05206 3.134847,-1.84074 0.675796,-0.82575 1.153571,-2.57794 1.00962,-3.70269 -0.14206,-1.10997 -0.781587,-2.35293 -1.60525,-3.11988 -0.835707,-0.77816 -3.006075,-1.42389 -4.131243,-1.22914 -2.483668,0.42991 -4.350166,2.72866 -4.252604,5.23744 0.05281,1.35789 1.09433,3.11497 2.371169,4.00022 0.675321,0.46821 2.559818,0.82347 3.473457,0.65479 z"
       id="path4725"
       inkscape:connector-curvature="0" />
    <path
       style="fill:#ffffff;stroke:none;stroke-width:0.1889881"
       d="m 42.691624,213.72998 c -1.537797,-1.15936 -2.078096,-2.78917 -1.532533,-4.62286 0.856554,-2.87897 3.904041,-3.94802 6.468956,-2.26929 0.841782,0.55094 1.721158,2.12114 1.750917,3.12641 0.03535,1.19433 -0.672845,2.87373 -1.505973,3.57122 -1.385899,1.16027 -3.781107,1.25018 -5.181367,0.19452 z"
       id="path4727"
       inkscape:connector-curvature="0" />
    <path
       style="opacity:1;fill:#ffbe40;fill-opacity:1;fill-rule:evenodd;stroke:#212121;stroke-width:0.26458332;stroke-linecap:round;stroke-linejoin:round;stroke-miterlimit:4;stroke-dasharray:none;stroke-dashoffset:0;stroke-opacity:1"
       d="m 36.844385,268.57225 -1.603616,3.0736 0.534538,5.47903 1.737252,-4.54358 z"
       id="path4745"
       inkscape:connector-curvature="0" />
    <path
       style="opacity:1;fill:#ffbe40;fill-opacity:1;fill-rule:evenodd;stroke:#212121;stroke-width:0.3922773;stroke-linecap:round;stroke-linejoin:round;stroke-miterlimit:4;stroke-dasharray:none;stroke-dashoffset:0;stroke-opacity:1"
       d="m 17.891407,272.78016 -2.632192,4.11615 0.877396,7.33749 2.851543,-6.08474 z"
       id="path4745-9"
       inkscape:connector-curvature="0" />
  </g>
</svg>
