<?xml version="1.0" encoding="UTF-8" standalone="no"?>
<!-- Created with Inkscape (http://www.inkscape.org/) -->

<svg
   xmlns:dc="http://purl.org/dc/elements/1.1/"
   xmlns:cc="http://creativecommons.org/ns#"
   xmlns:rdf="http://www.w3.org/1999/02/22-rdf-syntax-ns#"
   xmlns:svg="http://www.w3.org/2000/svg"
   xmlns="http://www.w3.org/2000/svg"
   xmlns:sodipodi="http://sodipodi.sourceforge.net/DTD/sodipodi-0.dtd"
   xmlns:inkscape="http://www.inkscape.org/namespaces/inkscape"
   width="50"
   height="50"
   viewBox="0 0 13.229166 13.229167"
   version="1.1"
   id="svg5639"
   inkscape:version="0.92.1 r15371"
   sodipodi:docname="call-icon.svg">
  
  <g
     inkscape:label="Layer 1"
     inkscape:groupmode="layer"
     id="layer1"
     transform="translate(0,-283.77081)">
    <path
       style="fill:#212121;fill-opacity:1;stroke:none;stroke-width:0.02264666"
       d="m 6.8016369,295.54048 c -0.1109668,-0.0708 -0.1505132,-0.24258 -0.085787,-0.37267 0.05711,-0.11475 0.1789271,-0.11104 0.3326747,0.01 0.1676067,0.13235 0.1988,0.14016 0.5664967,0.14036 0.4061,1.4e-4 0.532135,-0.028 0.836794,-0.1863 0.256517,-0.13332 0.457038,-0.31486 0.457038,-0.41385 0,-0.0495 -0.01787,-0.0819 -0.06352,-0.11534 -0.259293,-0.18981 -0.298945,-0.35916 -0.116345,-0.49667 0.06236,-0.0469 0.107055,-0.0647 0.141073,-0.0557 0.05102,0.0137 0.299471,-0.10087 0.44001,-0.20215 0.359524,-0.25915 0.7485887,-0.7606 1.0092407,-1.3008 0.295605,-0.61261 0.398636,-1.16497 0.376669,-2.0193 -0.03266,-1.27039 -0.367193,-2.2703 -0.9561537,-2.85798 -0.223139,-0.22263 -0.337705,-0.30564 -0.599354,-0.43421 -0.500603,-0.24597 -0.676683,-0.26408 -2.4916679,-0.2561 -1.3990203,0.006 -1.4509721,0.008 -1.6764166,0.0581 -0.2924608,0.0649 -0.5724728,0.17359 -0.7742308,0.30036 -0.7996153,0.50224 -1.2526931,1.49634 -1.3614259,2.98706 -0.042724,0.58584 0.019576,1.20381 0.1723079,1.7089 0.2434895,0.80522 0.8851957,1.67633 1.4296928,1.9408 0.094028,0.0594 0.1412764,0.20658 0.1502463,0.22008 0.028301,0.0428 0.028869,0.20921 -0.00366,0.29012 -0.045112,0.1122 -0.1371148,0.25915 -0.339514,0.41304 -0.097672,0.0743 -0.1609929,0.10192 -0.1787435,0.12794 0,0 -0.023786,0.0216 -0.048572,0.0498 -0.012293,0.014 -0.029237,0.032 -0.043548,0.0484 -0.082275,0.065 -0.1665257,0.0932 -0.4027002,0.0922 -0.4960183,-0.002 -0.9175887,-0.19001 -1.3634755,-0.6087 -0.1952271,-0.18336 -0.4288347,-0.47799 -0.536804,-0.67713 -0.2114707,-0.39001 -0.2404807,-0.78682 -0.081707,-1.11754 0.072361,-0.15071 0.1935252,-0.25328 0.3848691,-0.32581 0.1212718,-0.0459 0.133194,-0.0563 0.1214223,-0.10497 -0.010719,-0.044 -0.00433,-0.054 0.034319,-0.054 0.054891,0 0.058107,0.0354 -0.042931,-0.47334 -0.1146149,-0.57708 -0.1448906,-0.87218 -0.1456427,-1.42004 -7.466e-4,-0.56552 0.031799,-0.84903 0.1577153,-1.37294 0.1406595,-0.58525 0.3592327,-1.15323 0.5999616,-1.55905 0.2335192,-0.39367 0.8476841,-1.21063 1.164702,-1.54929 0.410626,-0.43865 0.7803668,-0.64293 1.4746059,-0.81465 0.4053269,-0.10028 0.6625814,-0.13195 1.1873974,-0.14622 0.7517178,-0.0203 1.2730956,0.0414 1.8784566,0.22303 0.713625,0.21398 1.076443,0.51544 1.8211997,1.51311 0.466636,0.62512 0.686875,1.00094 0.874052,1.49156 0.465135,1.21918 0.539333,2.3453 0.24782,3.76132 -0.03528,0.17144 -0.06018,0.31825 -0.05532,0.3264 0.0049,0.008 0.04391,0.0217 0.0868,0.0301 0.05437,0.01 0.07798,0.0276 0.07798,0.0561 0,0.0287 0.0491,0.0633 0.165181,0.1165 0.271968,0.12433 0.380548,0.26991 0.435336,0.58399 0.04295,0.24625 -0.01185,0.54098 -0.149423,0.80358 -0.25484,0.48643 -0.816116,1.01691 -1.265108,1.1957 -0.2414,0.0962 -0.404069,0.12785 -0.6630607,0.12902 -0.233384,0.001 -0.33038,-0.0285 -0.39291,-0.12042 -0.03253,-0.0479 -0.0966,-0.0581 -0.374824,-0.06 -0.174376,-0.001 -0.201216,0.006 -0.322068,0.0741 -0.453896,0.25979 -0.535439,0.28149 -1.142475,0.30415 -0.4396001,0.0156 -0.4881407,0.0225 -0.610821,0.0762 -0.1989316,0.0872 -0.2553647,0.0944 -0.3358264,0.043 z"
       id="path6392"
       inkscape:connector-curvature="0"
       sodipodi:nodetypes="cccccsccccccccccccccccccscccccccscccccccccccccscccccccccccc" />
  </g>
</svg>
