<?xml version="1.0" encoding="UTF-8" standalone="no"?>
<!-- Created with Inkscape (http://www.inkscape.org/) -->

<svg
   xmlns:dc="http://purl.org/dc/elements/1.1/"
   xmlns:cc="http://creativecommons.org/ns#"
   xmlns:rdf="http://www.w3.org/1999/02/22-rdf-syntax-ns#"
   xmlns:svg="http://www.w3.org/2000/svg"
   xmlns="http://www.w3.org/2000/svg"
   xmlns:sodipodi="http://sodipodi.sourceforge.net/DTD/sodipodi-0.dtd"
   xmlns:inkscape="http://www.inkscape.org/namespaces/inkscape"
   width="50"
   height="50"
   viewBox="0 0 13.229166 13.229167"
   version="1.1"
   id="svg8"
   inkscape:version="0.92.1 r15371"
   sodipodi:docname="download-icon.svg">
  <g
     inkscape:label="Layer 1"
     inkscape:groupmode="layer"
     id="layer1"
     transform="translate(0,-283.77082)">
    <path
       id="path4586"
       style="fill:none;fill-opacity:1;stroke:#212121;stroke-width:0.58208334;stroke-linecap:round;stroke-linejoin:round;stroke-miterlimit:4;stroke-dasharray:none;stroke-opacity:1;stroke-dashoffset:0"
       d="m 0.6912647,294.80376 v -0.7851 H 2.3904833 4.089702 l 0.2802464,0.13107 c 0.3624379,0.16951 0.8607864,0.31615 1.318778,0.38805 0.5220848,0.082 1.3948558,0.0533 1.8849835,-0.0619 0.3482295,-0.0819 0.9044839,-0.27389 1.1426618,-0.39444 0.1164013,-0.0589 0.2268006,-0.0627 1.8124213,-0.0627 h 1.68847 v 0.7851 0.7851 H 6.4542639 0.6912647 Z m 3.4317059,-3.71743 c -1.2949928,-1.06075 -2.3594279,-1.94211 -2.3654116,-1.95856 -0.013664,-0.0376 0.6121097,-0.92349 0.6450035,-0.91313 0.013287,0.004 0.6736913,0.54131 1.4675644,1.19361 1.738721,1.42867 1.6385508,1.35307 1.7288782,1.30473 l 0.070155,-0.0376 v -2.87197 -2.87197 h 0.818328 0.8183282 l 0.00854,2.89456 c 0.00802,2.72047 0.01207,2.8968 0.06729,2.93162 0.044699,0.0282 0.078185,0.0251 0.1399857,-0.0131 0.044678,-0.0276 0.7429368,-0.59509 1.5516868,-1.26118 0.8087491,-0.66608 1.4847582,-1.21106 1.5022422,-1.21106 0.01748,0 0.14119,0.1541 0.274905,0.34244 0.133714,0.18834 0.278539,0.38972 0.321833,0.44752 l 0.07872,0.10509 -1.713496,1.38004 c -0.9424226,0.75902 -2.0164622,1.62472 -2.3867545,1.92378 l -0.6732584,0.54374 z"
       inkscape:connector-curvature="0" />
  </g>
</svg>
