<?xml version="1.0" encoding="UTF-8" standalone="no"?>
<!-- Created with Inkscape (http://www.inkscape.org/) -->

<svg
   xmlns:dc="http://purl.org/dc/elements/1.1/"
   xmlns:cc="http://creativecommons.org/ns#"
   xmlns:rdf="http://www.w3.org/1999/02/22-rdf-syntax-ns#"
   xmlns:svg="http://www.w3.org/2000/svg"
   xmlns="http://www.w3.org/2000/svg"
   xmlns:sodipodi="http://sodipodi.sourceforge.net/DTD/sodipodi-0.dtd"
   xmlns:inkscape="http://www.inkscape.org/namespaces/inkscape"
   width="50"
   height="50"
   viewBox="0 0 13.229166 13.229167"
   version="1.1"
   id="svg6760"
   inkscape:version="0.92.1 r15371"
   sodipodi:docname="home-icon.svg">
 
  <g
     inkscape:label="Layer 1"
     inkscape:groupmode="layer"
     id="layer1"
     transform="translate(0,-283.77081)">
    <path
       style="fill:#212121;fill-opacity:1;stroke:#212121;stroke-width:0.20921645;stroke-miterlimit:4;stroke-dasharray:none;stroke-opacity:1"
       d="m 3.364692,295.02315 c -0.1289448,-0.0158 -0.1458265,-0.0592 -0.1458265,-0.37588 0,-0.15552 0.0024,-1.50601 0.00532,-3.00111 l 0.00532,-2.71839 1.6540435,-1.15219 c 0.9097237,-0.6337 1.6567511,-1.15975 1.660061,-1.169 0.0033,-0.009 -0.011589,-0.038 -0.03312,-0.0638 l -0.039137,-0.047 -2.3451388,1.63436 c -2.1620263,1.50671 -2.3524554,1.63479 -2.4388491,1.64059 -0.1253216,0.009 -0.170052,-0.0362 -0.1883498,-0.18788 -0.00766,-0.0636 -0.0086,-0.12906 -0.00209,-0.1456 0.020083,-0.0509 4.7881505,-3.35181 4.9092229,-3.39855 0.1518529,-0.0586 0.4091397,-0.0585 0.5613524,2.3e-4 0.068197,0.0264 1.0313348,0.68237 2.504998,1.70628 l 2.3942014,1.6635 v 0.14161 c 0,0.1746 -0.03835,0.22451 -0.172518,0.22451 -0.07887,0 -0.144943,-0.0388 -0.675447,-0.3969 -0.32341,-0.21827 -0.627923,-0.4281 -0.676696,-0.46624 -0.04878,-0.0382 -0.09398,-0.0694 -0.100463,-0.0694 -0.0065,0 -0.7803084,-0.52044 -1.7196059,-1.15656 -0.9392972,-0.63611 -1.7204168,-1.16391 -1.735821,-1.17286 -0.028847,-0.0168 -0.08703,0.0387 -0.088322,0.0843 -3.707e-4,0.0132 0.7739769,0.54857 1.7207752,1.18993 l 1.7214527,1.16607 -0.01,2.90264 c -0.0055,1.59645 -0.01465,2.9327 -0.02039,2.9694 -0.01302,0.0833 -0.0064,0.18523 -0.1109064,0.18523 -0.06617,0 0.03209,-0.0263 0.03209,0.007 0,0.0413 -0.1982614,0.0208 -3.3922446,0.0174 -1.7638698,-9.8e-4 -3.2371463,-0.008 -3.2739483,-0.0117 z m 3.7898394,-1.33185 c 0.5822284,-0.17914 1.0081331,-0.60941 1.1616488,-1.17354 0.062342,-0.22908 0.062245,-0.57816 -2.21e-4,-0.80562 -0.2048857,-0.74613 -0.8458659,-1.23295 -1.6233368,-1.23295 -0.2845888,0 -0.4796513,0.0402 -0.7175771,0.14777 -1.0454613,0.47279 -1.3076157,1.79444 -0.5177186,2.61003 0.2343872,0.24202 0.5402087,0.41236 0.8675247,0.48323 0.2155555,0.0466 0.6310948,0.0321 0.8296811,-0.029 z"
       id="path6049"
        />
  </g>
</svg>
