<?xml version="1.0" encoding="UTF-8" standalone="no"?>
<!-- Created with Inkscape (http://www.inkscape.org/) -->

<svg
   xmlns:dc="http://purl.org/dc/elements/1.1/"
   xmlns:cc="http://creativecommons.org/ns#"
   xmlns:rdf="http://www.w3.org/1999/02/22-rdf-syntax-ns#"
   xmlns:svg="http://www.w3.org/2000/svg"
   xmlns="http://www.w3.org/2000/svg"
   xmlns:sodipodi="http://sodipodi.sourceforge.net/DTD/sodipodi-0.dtd"
   xmlns:inkscape="http://www.inkscape.org/namespaces/inkscape"
   width="50"
   height="50"
   viewBox="0 0 13.229166 13.229167"
   version="1.1"
   id="svg7024"
   inkscape:version="0.92.1 r15371"
   sodipodi:docname="music-icon.svg">

  <g
     inkscape:label="Layer 1"
     inkscape:groupmode="layer"
     id="layer1"
     transform="translate(0,-283.77081)">
    <path
       style="fill:#212121;stroke:none;stroke-width:0.03340869;fill-opacity:1"
       d="m 1.0955081,294.35197 c -0.15187184,-0.069 -0.33666705,-0.26392 -0.40479702,-0.42697 -0.0619431,-0.14825 -0.0687369,-6.69326 -0.007161,-6.89878 0.0553872,-0.18486 0.23219148,-0.37516 0.42603902,-0.45855 l 0.1670401,-0.0719 5.3578241,0.009 5.3578237,0.009 0.163536,0.10111 c 0.101346,0.0627 0.201985,0.16329 0.264645,0.26463 l 0.101109,0.16353 0.009,3.36927 0.009,3.36927 -0.07166,0.16657 c -0.07761,0.18041 -0.244329,0.34791 -0.418862,0.42084 -0.09175,0.0383 -0.995799,0.0458 -5.4647512,0.0452 -5.1072404,-7e-4 -5.361006,-0.004 -5.4887357,-0.0616 z m 6.0099076,-1.43878 c 0.057293,-0.0355 0.1342372,-0.11441 0.1709867,-0.1754 0.064681,-0.10734 0.06711,-0.17872 0.075969,-2.23233 l 0.00915,-2.12146 -0.075969,-0.15034 c -0.1465101,-0.28993 -0.4955156,-0.37377 -0.7310265,-0.1756 -0.2050341,0.17253 -0.1968762,0.0722 -0.1967394,2.42068 1.336e-4,2.08461 0.00209,2.15139 0.066512,2.25705 0.1402519,0.23003 0.4611582,0.31361 0.6811153,0.1774 z m 1.8869988,-0.0257 c 0.048431,-0.0352 0.122288,-0.13086 0.1641261,-0.21248 l 0.076069,-0.14838 -0.00925,-1.74319 c -0.00907,-1.70905 -0.01062,-1.74503 -0.079141,-1.83747 -0.1814314,-0.24478 -0.4663991,-0.31498 -0.6852179,-0.1688 -0.2359248,0.15761 -0.2303391,0.10774 -0.2303973,2.05727 -6.7e-5,1.96714 -0.00733,1.90628 0.246217,2.06184 0.1623165,0.0996 0.3736297,0.096 0.5175956,-0.009 z m -3.6670088,-0.0191 c 0.2235626,-0.14935 0.2303391,-0.18867 0.2303973,-1.33676 6.69e-5,-1.12564 -0.00725,-1.17598 -0.1934697,-1.33267 -0.2383179,-0.20053 -0.5870773,-0.11899 -0.7335697,0.17152 -0.073033,0.14483 -0.075149,0.17759 -0.074436,1.1526 6.614e-4,0.91731 0.00624,1.01567 0.064875,1.14483 0.1211149,0.2668 0.4620427,0.36358 0.7062031,0.20048 z"
       id="path4532"
       inkscape:connector-curvature="0" />
  </g>
</svg>
