<?xml version="1.0" encoding="UTF-8" standalone="no"?>
<!-- Created with Inkscape (http://www.inkscape.org/) -->

<svg
   xmlns:dc="http://purl.org/dc/elements/1.1/"
   xmlns:cc="http://creativecommons.org/ns#"
   xmlns:rdf="http://www.w3.org/1999/02/22-rdf-syntax-ns#"
   xmlns:svg="http://www.w3.org/2000/svg"
   xmlns="http://www.w3.org/2000/svg"
   xmlns:sodipodi="http://sodipodi.sourceforge.net/DTD/sodipodi-0.dtd"
   xmlns:inkscape="http://www.inkscape.org/namespaces/inkscape"
   width="50"
   height="50"
   viewBox="0 0 13.229166 13.229167"
   version="1.1"
   id="svg4725"
   sodipodi:docname="setting-icon.svg"
   inkscape:version="0.92.1 r15371">
  
  <g
     inkscape:label="Layer 1"
     inkscape:groupmode="layer"
     id="layer1"
     transform="translate(0,-283.77081)">
    <path
       style="fill:#212121;fill-opacity:1;stroke:none;stroke-width:0.02377947"
       d="m 5.3444135,294.54543 c -0.3937242,-0.15053 -0.7259799,-0.27771 -0.7383456,-0.28264 -0.01232,-0.004 0.138281,-0.51775 0.3347476,-1.13963 0.1964826,-0.62185 0.3571023,-1.13878 0.3569433,-1.14872 -1.649e-4,-0.0102 -0.016493,-0.0184 -0.036225,-0.0184 -0.019672,0 -0.042265,-0.0163 -0.049975,-0.0375 -0.00775,-0.0206 -0.028157,-0.032 -0.045445,-0.0251 -0.017288,0.006 -0.4405894,0.31219 -0.9406899,0.67864 -0.5000985,0.36644 -0.9211987,0.67095 -0.9357779,0.6767 -0.021878,0.008 -0.9985358,-1.2563 -1.0126069,-1.31147 -0.00242,-0.0102 0.3804367,-0.31501 0.8508208,-0.67882 0.4703837,-0.3638 0.8552435,-0.66944 0.8552435,-0.67917 0,-0.0102 -0.00954,-0.0239 -0.021262,-0.0312 -0.011724,-0.008 -0.015897,-0.0345 -0.00934,-0.06 0.010134,-0.0396 -0.012121,-0.0537 -0.1488919,-0.0949 -0.088405,-0.0265 -0.5515182,-0.16399 -1.0291518,-0.30515 -0.477633,-0.14135 -0.8725269,-0.2609 -0.8775425,-0.26588 -0.01842,-0.0183 0.4530927,-1.60052 0.4771398,-1.6011 0.013671,-3.2e-4 0.4768646,0.12157 1.0293048,0.27104 l 1.0044354,0.27162 0.1557872,0.19866 c 0.085683,0.10933 0.1617881,0.19846 0.1691005,0.19805 0.00735,-4.2e-4 0.03849,-0.0222 0.06925,-0.0485 l 0.055936,-0.0477 -0.1110579,-0.14502 c -0.084093,-0.10994 -0.1077395,-0.15868 -0.097427,-0.20091 0.011525,-0.0471 1.649e-4,-0.0612 -0.074357,-0.0912 -0.071495,-0.0288 -0.1905809,-0.16521 -0.6350968,-0.72677 -0.3009056,-0.38022 -0.5436573,-0.70018 -0.5394466,-0.71103 0.013115,-0.0339 1.1891525,-1.08747 1.2138161,-1.08747 0.012916,0 0.337458,0.37423 0.7213659,0.83163 0.4736902,0.56436 0.7056938,0.82372 0.7219124,0.80708 0.013115,-0.0143 0.045584,-0.0245 0.072071,-0.0245 0.044411,0 0.066269,-0.0842 0.2804844,-1.082 0.147799,-0.68839 0.2417025,-1.0787 0.2581237,-1.07293 0.024004,0.008 1.5605243,0.37212 1.5720953,0.37212 0.003,0 -0.09256,0.52309 -0.212117,1.16245 -0.119543,0.63933 -0.21285,1.17599 -0.207334,1.19255 0.0056,0.0163 0.02621,0.0302 0.04598,0.0302 0.01967,0 0.03595,0.0122 0.03595,0.0269 0,0.0143 0.01848,0.0218 0.04107,0.0163 0.02259,-0.006 0.45827,-0.30142 0.968175,-0.65598 0.509907,-0.35456 0.9376635,-0.64827 0.9505735,-0.65267 0.02003,-0.006 0.9481991,1.27091 0.9684001,1.33312 0.004,0.0122 -0.32853,0.26965 -0.738807,0.57234 -0.4102736,0.30268 -0.7994156,0.59048 -0.8647566,0.63955 -0.108654,0.0816 -0.118013,0.0963 -0.109449,0.17154 l 0.0093,0.0822 1.0013436,0.32184 c 0.550739,0.17704 1.012541,0.32818 1.026224,0.33593 0.0157,0.008 -0.06853,0.30673 -0.230162,0.81306 l -0.255038,0.79896 -0.157118,-0.0465 c -0.08642,-0.0255 -0.5881941,-0.17174 -1.1150736,-0.32498 l -0.957964,-0.27858 -0.05647,0.0626 -0.05647,0.0626 0.500082,0.82466 c 0.275046,0.45358 0.553267,0.91177 0.618268,1.01822 l 0.118192,0.19357 -0.682548,0.47546 -0.682551,0.47545 -0.5945025,-0.92195 c -0.3445697,-0.53437 -0.606453,-0.91773 -0.6229279,-0.91188 -0.015698,0.006 -0.051167,0.0102 -0.078967,0.008 -0.045584,-10e-4 -0.085683,0.0997 -0.4097201,1.03189 -0.267465,0.76941 -0.3684405,1.03273 -0.3954171,1.03116 -0.019931,-0.001 -0.3583641,-0.12524 -0.7520882,-0.27579 z m 1.5797509,-3.22729 c 0.2038188,-0.0545 0.3636536,-0.14808 0.5091954,-0.29814 0.4139166,-0.42676 0.4031186,-1.11978 -0.023845,-1.53079 -0.6252468,-0.60191 -1.624035,-0.24974 -1.7648018,0.62224 -0.1184101,0.73357 0.5811853,1.39338 1.2794554,1.20669 z"
       id="path5375"
       inkscape:connector-curvature="0" />
  </g>
</svg>
