<?xml version="1.0" encoding="UTF-8" standalone="no"?>
<!-- Created with Inkscape (http://www.inkscape.org/) -->

<svg
   xmlns:dc="http://purl.org/dc/elements/1.1/"
   xmlns:cc="http://creativecommons.org/ns#"
   xmlns:rdf="http://www.w3.org/1999/02/22-rdf-syntax-ns#"
   xmlns:svg="http://www.w3.org/2000/svg"
   xmlns="http://www.w3.org/2000/svg"
   xmlns:sodipodi="http://sodipodi.sourceforge.net/DTD/sodipodi-0.dtd"
   xmlns:inkscape="http://www.inkscape.org/namespaces/inkscape"
   width="50"
   height="50"
   viewBox="0 0 13.229166 13.229167"
   version="1.1"
   id="svg8"
   inkscape:version="0.92.1 r15371"
   sodipodi:docname="sun-icon.svg">
  <g
     inkscape:label="Layer 1"
     inkscape:groupmode="layer"
     id="layer1"
     transform="translate(0,-283.77081)">
    <path
       style="fill:none;stroke:#212121;stroke-width:0.39687499;stroke-linecap:round;stroke-linejoin:round;stroke-miterlimit:4;stroke-dasharray:none;stroke-opacity:1;stroke-dashoffset:0"
       d="m 3.4838123,290.98383 c -0.467579,-1.07552 -0.4610966,-2.34733 0.017422,-3.41802 0.4785182,-1.0707 1.4217338,-1.92386 2.5349182,-2.2929 1.1270073,-0.37362 2.4106048,-0.24453 3.4406411,0.34604 1.0300367,0.59056 1.7899287,1.63308 2.0368677,2.79444 0.246938,1.16136 -0.02305,2.42287 -0.723703,3.38142 -0.700649,0.95856 -1.820678,1.59873 -3.0021999,1.71597"
       id="path4521"
       inkscape:connector-curvature="0"
       inkscape:path-effect="#path-effect4523"
       inkscape:original-d="m 3.4838123,290.98383 c 0.8427191,-1.8955 1.70184,-3.80756 2.5523399,-5.71092 0.8504997,-1.90335 1.1680174,5.49162 1.7516059,8.23787" />
    <path
       style="fill:#212121;stroke:none;stroke-width:0.08928572;fill-opacity:1"
       d="m 17.679308,44.068154 c -2.411974,-0.347572 -4.960828,-1.755976 -6.485381,-3.583585 -0.256245,-0.307182 -0.505323,-0.546348 -0.553506,-0.531478 -0.04818,0.01487 -0.113896,-0.0155 -0.146028,-0.0675 -0.03213,-0.05199 -0.293967,-0.15588 -0.5818549,-0.230865 C 9.1377402,39.452921 8.5532204,39.105125 7.8946048,38.454037 6.4881755,37.063679 6.172964,35.103159 7.0638431,33.286949 c 0.8708614,-1.775401 2.8807836,-2.783495 4.8063599,-2.410671 0.569979,0.110357 0.70098,0.11321 0.738253,0.01608 0.02492,-0.06495 0.09609,-0.118086 0.158153,-0.118086 0.07452,0 0.134153,-0.216298 0.175598,-0.636893 0.129545,-1.314682 0.647513,-2.413656 1.583432,-3.359573 2.105606,-2.128099 5.493493,-2.122163 7.627346,0.01336 0.489365,0.489749 0.716667,0.808385 0.99429,1.393818 0.449861,0.948632 0.56429,1.424905 0.57223,2.381712 0.0046,0.558916 0.03868,0.768881 0.130362,0.804063 0.06825,0.02619 0.124084,0.09575 0.124084,0.154581 0,0.06361 0.272184,0.1527 0.671593,0.219812 0.962317,0.161698 1.997112,0.698798 2.67896,1.390488 0.651407,0.660808 0.942485,1.140711 1.253086,2.065974 0.213185,0.635068 0.231839,0.796687 0.194675,1.686621 -0.04714,1.128877 -0.190375,1.652719 -0.666202,2.436497 -0.465209,0.766287 -1.663252,2.039238 -2.546958,2.706205 -1.33311,1.006151 -3.276181,1.81076 -4.927505,2.040438 -0.793301,0.110338 -2.174706,0.10883 -2.952292,-0.0032 z"
       id="path4525"
       inkscape:connector-curvature="0"
       transform="matrix(0.26458333,0,0,0.26458333,0,283.77081)" />
  </g>
</svg>
