<?xml version="1.0" encoding="UTF-8" standalone="no"?>
<!-- Created with Inkscape (http://www.inkscape.org/) -->

<svg
   xmlns:dc="http://purl.org/dc/elements/1.1/"
   xmlns:cc="http://creativecommons.org/ns#"
   xmlns:rdf="http://www.w3.org/1999/02/22-rdf-syntax-ns#"
   xmlns:svg="http://www.w3.org/2000/svg"
   xmlns="http://www.w3.org/2000/svg"
   xmlns:sodipodi="http://sodipodi.sourceforge.net/DTD/sodipodi-0.dtd"
   xmlns:inkscape="http://www.inkscape.org/namespaces/inkscape"
   width="50"
   height="50"
   viewBox="0 0 13.229166 13.229167"
   version="1.1"
   id="svg8"
   inkscape:version="0.92.1 r15371"
   sodipodi:docname="sun-icon.svg">
  
  <g
     inkscape:label="Layer 1"
     inkscape:groupmode="layer"
     id="layer1"
     transform="translate(0,-283.77081)">
    <path
       style="opacity:0.98500001;fill:#212121;fill-opacity:1;stroke:none;stroke-width:0.02362351"
       d="m 8.6550783,284.49823 c -0.013673,-0.004 -0.031458,0.0113 -0.066663,0.0424 -0.1050308,0.0928 -0.2837235,0.49304 -0.7260537,1.62574 -0.6096288,1.56112 -0.6938769,1.73914 -0.8144208,1.72134 -0.093667,-0.0138 -0.318657,-0.31578 -1.0154417,-1.36322 -0.9650159,-1.45067 -1.1917789,-1.73347 -1.2547039,-1.56218 -0.034959,0.0952 0.1038304,0.58149 0.5281332,1.84795 0.2824437,0.84304 0.4566375,1.41484 0.4702556,1.54512 l 0.021704,0.20671 H 5.701253 c -0.1500968,-6e-5 -0.7007445,-0.1415 -1.7451131,-0.44907 -1.346393,-0.39655 -1.7106129,-0.48133 -1.809192,-0.42013 -0.041236,0.0256 -0.032835,0.0486 0.050126,0.13643 0.1389327,0.147 0.4411446,0.34672 1.4397053,0.95239 0.9916623,0.60149 1.3215897,0.81675 1.4743287,0.96067 0.103764,0.0977 0.1058211,0.1046 0.050126,0.1664 -0.083264,0.0924 -0.5588014,0.32293 -1.6283244,0.79064 -1.0343137,0.45231 -1.5476396,0.70424 -1.6365925,0.80254 -0.056446,0.0624 -0.055603,0.0664 0.027905,0.10439 0.057171,0.026 0.2016071,0.0273 0.4754232,-5.2e-4 -0.031803,0.027 -0.063071,0.0545 -0.093018,0.0847 -0.2476286,0.25027 -0.3848208,0.54098 -0.4190959,0.88883 -0.010965,0.11131 -0.026792,0.16899 -0.046509,0.16899 -0.016421,0 -0.035268,0.0138 -0.041858,0.031 -0.00986,0.0259 -0.04453,0.0251 -0.195337,-0.004 -0.5094753,-0.0987 -1.04134153,0.16794 -1.27175694,0.63768 -0.2357118,0.48054 -0.1519762,0.99949 0.22014159,1.36736 0.1742587,0.17226 0.32881895,0.26441 0.53381755,0.31781 0.07617,0.0199 0.1454958,0.0472 0.1539958,0.061 0.0085,0.0139 0.025492,0.0221 0.03824,0.0181 0.012748,-0.004 0.078963,0.0593 0.1467611,0.14056 0.4033713,0.48356 1.0774894,0.85574 1.7156574,0.94774 v 5.2e-4 c 0.2057363,0.0297 0.5714534,0.0302 0.7813477,10e-4 0.4369128,-0.0608 0.9510778,-0.27381 1.3037965,-0.54002 0.2338136,-0.17645 0.5507741,-0.51349 0.6738607,-0.71623 0.1258959,-0.20738 0.1637445,-0.34573 0.1762164,-0.64441 0.00983,-0.23546 0.00473,-0.27845 -0.051676,-0.44648 -0.08218,-0.24481 -0.1588944,-0.37138 -0.3312459,-0.54622 -0.035534,-0.036 -0.077453,-0.0689 -0.1193725,-0.10129 0.7717099,-0.87703 1.13182,-1.24387 1.2097451,-1.22886 0.1096988,0.0211 0.2286158,0.41634 0.6418214,2.13165 0.1915483,0.79515 0.3372332,1.27882 0.4206463,1.39733 v 5.2e-4 c 0.1551339,0.22041 0.1943578,-0.11222 0.2501137,-2.11615 0.033318,-1.19748 0.056337,-1.49193 0.1219566,-1.55753 0.071092,-0.0711 0.3537106,0.1083 1.5291053,0.97255 1.2211869,0.89792 1.5574549,1.11218 1.6314249,1.03818 0.07449,-0.0745 -0.14479,-0.39098 -1.079004,-1.55546 -0.8441692,-1.05224 -1.0702186,-1.36567 -1.0702186,-1.48415 0,-0.10476 0.3022568,-0.14706 1.6898196,-0.23616 1.541265,-0.099 1.948199,-0.14703 2.004529,-0.23823 0.07179,-0.11616 -0.234488,-0.20549 -1.769918,-0.51521 -1.5799828,-0.3187 -1.8241784,-0.38528 -1.8241784,-0.49764 0,-0.0948 0.3217198,-0.43364 1.2753744,-1.34411 0.957726,-0.91436 1.263489,-1.24429 1.263489,-1.36167 0,-0.0478 -0.01901,-0.0537 -0.108521,-0.0351 -0.158331,0.033 -0.745277,0.32468 -1.545125,0.76843 -0.7979436,0.44269 -1.4096618,0.7555 -1.5988688,0.817 -0.106816,0.0344 -0.1351505,0.0336 -0.1612304,-0.004 -0.049829,-0.0721 -0.00834,-0.72337 0.1188558,-1.86656 0.1483918,-1.33363 0.1712566,-1.65956 0.1235065,-1.78335 -0.018377,-0.0477 -0.028185,-0.0712 -0.041858,-0.0755 z m -1.1870076,4.55425 c 0.4282863,0 0.7727124,0.21962 0.9549804,0.60926 0.1185701,0.25355 0.1216269,0.60757 0.00723,0.86403 -0.098552,0.22094 -0.3768609,0.48212 -0.5922118,0.55552 -0.1919637,0.0653 -0.5500868,0.0659 -0.7270875,10e-4 -0.8518019,-0.31209 -0.9209497,-1.50305 -0.1111043,-1.91616 0.1942856,-0.0992 0.2561291,-0.11369 0.4681884,-0.11369 z m -1.9668051,2.1518 c 0.065986,0.005 0.096849,0.0195 0.1054201,0.0419 0.03276,0.0854 -0.094539,0.38039 -0.7027995,1.62574 -0.020132,0.0412 -0.030894,0.0644 -0.050126,0.10387 -0.029615,-0.01 -0.047542,-0.0203 -0.047542,-0.0284 0,-0.0156 -0.014498,-0.0338 -0.032556,-0.0408 -0.024258,-0.009 -0.033403,-0.065 -0.034623,-0.21291 -0.0021,-0.25316 -0.032386,-0.37895 -0.151412,-0.62994 -0.073454,-0.1549 -0.133555,-0.23939 -0.2630329,-0.36897 -0.1296551,-0.12986 -0.2775579,-0.22831 -0.434082,-0.29869 0.9522529,-0.14526 1.4315064,-0.206 1.6107542,-0.19172 z"
       id="path4525"
       inkscape:connector-curvature="0" />
  </g>
</svg>
