<?xml version="1.0" encoding="UTF-8" standalone="no"?>
<!-- Created with Inkscape (http://www.inkscape.org/) -->

<svg
   xmlns:dc="http://purl.org/dc/elements/1.1/"
   xmlns:cc="http://creativecommons.org/ns#"
   xmlns:rdf="http://www.w3.org/1999/02/22-rdf-syntax-ns#"
   xmlns:svg="http://www.w3.org/2000/svg"
   xmlns="http://www.w3.org/2000/svg"
   xmlns:sodipodi="http://sodipodi.sourceforge.net/DTD/sodipodi-0.dtd"
   xmlns:inkscape="http://www.inkscape.org/namespaces/inkscape"
   width="50"
   height="50"
   viewBox="0 0 13.229166 13.229167"
   version="1.1"
   id="svg6400"
   inkscape:version="0.92.1 r15371"
   sodipodi:docname="time-icon.svg">
 
  <g
     inkscape:label="Layer 1"
     inkscape:groupmode="layer"
     id="layer1"
     transform="translate(0,-283.77081)">
    <rect
       style="fill:#212121;fill-opacity:1;fill-rule:evenodd;stroke-width:0.25935414"
       id="rect4642"
       width="0.65195394"
       height="2.0351624"
       x="169.07864"
       y="246.29684"
       ry="0.24276084"
       transform="matrix(0.84480085,0.53508086,-0.56443023,0.82548078,0,0)" />
    <rect
       style="fill:#212121;fill-opacity:1;fill-rule:evenodd;stroke-width:0.25935414"
       id="rect4642-5"
       width="0.65195394"
       height="2.0351624"
       x="157.55153"
       y="253.71658"
       ry="0.24276084"
       transform="matrix(-0.84480085,0.53508086,0.56443023,0.82548078,0,0)" />
    <path
       style="fill:#212121;fill-opacity:1;stroke:none;stroke-width:0.03980555"
       d="m 6.0456483,294.45384 c -1.8114505,-0.37821 -3.116614,-1.70154 -3.3899311,-3.4371 -0.069901,-0.44388 -0.073609,-0.71265 -0.015389,-1.11552 0.268455,-1.85766 1.7068321,-3.27714 3.6196422,-3.5721 0.4713804,-0.0727 1.2519365,-0.0286 1.7332534,0.0978 1.2137308,0.31893 2.2079612,1.10701 2.7542102,2.18313 1.029267,2.02767 0.164201,4.47337 -1.9427199,5.49242 -0.8269319,0.39996 -1.8824095,0.53436 -2.7590662,0.35132 z m 1.6257143,-1.79499 c 0.5655241,-0.169 1.1308065,-0.61972 1.4082261,-1.12281 0.8510559,-1.54337 -0.302197,-3.40909 -2.1072543,-3.40909 -0.4325684,0 -0.6861521,0.0573 -1.0881546,0.24609 -0.9641523,0.45267 -1.4921542,1.47526 -1.2958005,2.50961 0.1632173,0.85979 0.9508948,1.63481 1.8630141,1.83308 0.3355393,0.0729 0.8687719,0.0481 1.2199692,-0.0569 z"
       id="path4659"
       inkscape:connector-curvature="0" />
    <path
       style="fill:#212121;fill-opacity:1;stroke:none;stroke-width:0.03980555"
       d="m 9.7271806,286.54031 c -0.8309884,-0.55967 -1.500446,-1.03384 -1.4876836,-1.05371 0.012763,-0.0199 0.1177688,-0.0824 0.2333493,-0.1389 0.8552503,-0.41823 1.9000157,-0.19675 2.4681317,0.5232 0.3006,0.38095 0.375351,0.60882 0.377524,1.15091 10e-4,0.25916 -0.01597,0.47403 -0.03931,0.49648 -0.02779,0.0268 -0.531101,-0.29041 -1.5520214,-0.97798 z"
       id="path4661"
       inkscape:connector-curvature="0" />
    <path
       style="fill:#212121;fill-opacity:1;stroke:none;stroke-width:0.03980555"
       d="m 2.1132394,287.49638 c -0.014107,-0.0354 -0.036205,-0.18915 -0.049104,-0.3417 -0.07201,-0.85162 0.5109518,-1.68307 1.3585881,-1.93769 0.3395363,-0.10193 0.8443938,-0.10368 1.1774626,-0.004 0.2257323,0.0676 0.6379598,0.26906 0.6067268,0.29648 -0.037534,0.033 -3.0429349,2.05113 -3.0544796,2.05113 -0.00745,0 -0.025086,-0.029 -0.039194,-0.0643 z"
       id="path4663"
       inkscape:connector-curvature="0" />
  </g>
</svg>
