<?xml version="1.0" encoding="UTF-8" standalone="no"?>
<!-- Created with Inkscape (http://www.inkscape.org/) -->

<svg
   xmlns:dc="http://purl.org/dc/elements/1.1/"
   xmlns:cc="http://creativecommons.org/ns#"
   xmlns:rdf="http://www.w3.org/1999/02/22-rdf-syntax-ns#"
   xmlns:svg="http://www.w3.org/2000/svg"
   xmlns="http://www.w3.org/2000/svg"
   xmlns:sodipodi="http://sodipodi.sourceforge.net/DTD/sodipodi-0.dtd"
   xmlns:inkscape="http://www.inkscape.org/namespaces/inkscape"
   width="200"
   height="200"
   viewBox="0 0 52.916665 52.916668"
   version="1.1"
   id="svg8"
   inkscape:version="0.92.1 r15371"
   sodipodi:docname="logo-martin.svg">
  <g
     inkscape:label="Layer 1"
     inkscape:groupmode="layer"
     id="layer1"
     transform="translate(0,-244.08333)">
    <g
       id="g4559"
       transform="matrix(1.1374965,0,0,1.2951384,-4.5517748,-75.740397)">
      <g
         id="g4572"
         transform="translate(-0.23496294,-0.30954552)">
        <path
           style="fill:#ff8750;fill-opacity:1;stroke:#212121;stroke-width:0.13229168;stroke-linecap:round;stroke-linejoin:round;stroke-miterlimit:4;stroke-dasharray:none;stroke-dashoffset:0;stroke-opacity:1"
           d="m 9.7751989,284.57687 -0.070525,-33.41498 4.9367671,3.28672 -0.07053,25.27643 z"
           id="path4490"
           inkscape:connector-curvature="0" />
        <path
           style="fill:#ffbe40;fill-opacity:1;stroke:#212121;stroke-width:0.13229168;stroke-linecap:round;stroke-linejoin:round;stroke-miterlimit:4;stroke-dasharray:none;stroke-dashoffset:0;stroke-opacity:1"
           d="m 46.320177,284.5878 0.07052,-33.41498 -4.936766,3.28672 0.07053,25.27643 z"
           id="path4490-7"
           inkscape:connector-curvature="0" />
        <path
           style="fill:#ff5a5a;fill-opacity:1;stroke:#212121;stroke-width:0.10899319;stroke-linecap:round;stroke-linejoin:round;stroke-miterlimit:4;stroke-dasharray:none;stroke-dashoffset:0;stroke-opacity:1"
           d="m 14.641441,254.44861 0.08125,5.56142 13.161951,3.55184 0.162485,-5.14081 z"
           id="path4509"
           inkscape:connector-curvature="0" />
        <path
           style="fill:#28ff98;fill-opacity:1;stroke:#212121;stroke-width:0.13282083;stroke-linecap:round;stroke-linejoin:round;stroke-miterlimit:4;stroke-dasharray:none;stroke-dashoffset:0;stroke-opacity:1"
           d="m 41.453931,254.45954 -0.08126,5.54612 -13.163044,3.54208 -0.1625,-5.12668 z"
           id="path4509-1"
           inkscape:connector-curvature="0" />
        <path
           inkscape:connector-curvature="0"
           style="fill:#ffbe40;fill-opacity:1;stroke:#212121;stroke-width:0.10607294;stroke-linecap:round;stroke-linejoin:miter;stroke-miterlimit:4;stroke-dasharray:2.54575074, 2.54575073999999990;stroke-dashoffset:0;stroke-opacity:1"
           d="m 10.332591,257.35865 c -0.06018,0.43794 0.137797,0.89698 0.513695,1.19108 0.375898,0.29412 0.919517,0.41535 1.410565,0.31453 0.340224,-0.0698 0.651845,-0.24196 0.870158,-0.4806 0.218315,-0.23864 0.341925,-0.54228 0.345163,-0.84788 0.0036,-0.348 -0.150238,-0.69543 -0.421087,-0.9504 -0.270848,-0.25499 -0.655721,-0.41482 -1.052864,-0.43722 -0.397142,-0.0224 -0.802308,0.0929 -1.108379,0.31528 -0.306071,0.22243 -0.509773,0.54969 -0.557251,0.89521 z"
           id="path4568-1" />
        <path
           inkscape:connector-curvature="0"
           style="fill:#ff8750;fill-opacity:1;stroke:#212121;stroke-width:0.10607389;stroke-linecap:round;stroke-linejoin:miter;stroke-miterlimit:4;stroke-dasharray:1.27288655, 1.27288655;stroke-dashoffset:0;stroke-opacity:1"
           d="m 37.949491,275.65005 c -0.06018,0.43794 0.137798,0.89698 0.513697,1.19109 0.375898,0.29413 0.919519,0.41534 1.410568,0.31453 0.340224,-0.0698 0.651846,-0.24195 0.87016,-0.4806 0.218315,-0.23864 0.341924,-0.5423 0.345163,-0.84789 0.0036,-0.34801 -0.15024,-0.69544 -0.421088,-0.95042 -0.270849,-0.255 -0.655722,-0.41483 -1.052866,-0.43723 -0.397143,-0.0224 -0.802311,0.0929 -1.108382,0.31528 -0.306072,0.22245 -0.509774,0.54969 -0.557252,0.89524 z"
           id="path4568" />
        <path
           inkscape:connector-curvature="0"
           style="fill:none;stroke:#212121;stroke-width:0.21951228;stroke-linecap:round;stroke-linejoin:miter;stroke-miterlimit:4;stroke-dasharray:5.26829465,0.21951228;stroke-dashoffset:0;stroke-opacity:1"
           d="m 9.6416912,255.82998 c -0.5509065,0.12592 -1.1021213,0.25192 -1.3700106,0.48028 -0.2678894,0.22836 -0.2521494,0.5589 0.025934,0.89424 0.2780831,0.33533 0.8401798,0.68865 2.0763664,1.38154 1.236186,0.69289 3.157813,1.73246 4.291704,2.38603 1.133891,0.65356 1.480388,0.92131 1.691807,1.26144 0.211419,0.34014 0.292471,0.77782 0.0011,1.15589 -0.291342,0.37808 -0.952477,0.70865 -1.291109,0.8741 -0.338632,0.16544 -0.354372,0.16544 -0.370392,0.16544"
           id="path4670" />
        <path
           inkscape:connector-curvature="0"
           style="fill:none;stroke:#212121;stroke-width:0.21798638;stroke-linecap:round;stroke-linejoin:miter;stroke-miterlimit:4;stroke-dasharray:5.2316731,0.21798638;stroke-dashoffset:0;stroke-opacity:1"
           d="m 9.6889381,265.37389 c -0.3146604,0.15733 -0.6296405,0.31482 -0.8423353,0.44869 -0.2126947,0.13387 -0.3228255,0.244 -0.3633306,0.42462 -0.040505,0.18063 -0.00703,0.46512 0.1427566,0.67006 0.1497914,0.20494 0.4172949,0.34656 1.5115462,0.66932 1.094251,0.32276 3.016328,0.82691 4.142355,1.13401 1.126027,0.30711 1.456786,0.41736 1.724402,0.55904 0.267616,0.14169 0.472455,0.31501 0.606299,0.44098 0.133843,0.12597 0.196832,0.2047 0.206357,0.3467 0.0095,0.14199 -0.04093,0.37745 -0.193517,0.58644 -0.152587,0.20899 -0.429898,0.42105 -0.784483,0.63382 -0.354584,0.21276 -0.79507,0.433 -1.236359,0.65365"
           id="path4674" />
        <path
           inkscape:connector-curvature="0"
           style="fill:none;stroke:#212121;stroke-width:0.21798638;stroke-linecap:round;stroke-linejoin:miter;stroke-miterlimit:4;stroke-dasharray:5.2316731, 0.21798638;stroke-dashoffset:0;stroke-opacity:1"
           d="m 9.6889341,272.69717 c -0.6768883,0.26761 -1.3540945,0.53534 -1.763668,0.78729 -0.4095736,0.25194 -0.7715277,0.55256 -0.8500129,0.82879 -0.09317,0.28912 0.036395,0.55461 0.2493061,0.78341 0.2361051,0.25373 0.2697828,0.4511 1.6871254,0.83693 1.4173433,0.38583 4.0477313,0.98436 5.5123163,1.37808 1.464585,0.39372 1.763838,0.58272 1.897685,0.88173 0.133847,0.29902 0.102343,0.70859 -0.233752,0.98237 -0.336095,0.27377 -0.976183,0.41144 -1.617023,0.54927"
           id="path4678"
           sodipodi:nodetypes="cccsssccc" />
        <path
           inkscape:connector-curvature="0"
           style="fill:#28ff98;fill-opacity:1;stroke:#212121;stroke-width:0.10899319;stroke-linecap:round;stroke-linejoin:miter;stroke-miterlimit:4;stroke-dasharray:0.87194552,0.87194552;stroke-dashoffset:0;stroke-opacity:1"
           d="m 6.2514539,271.68629 c -0.060175,0.43794 0.137798,0.89698 0.5136956,1.19108 0.3758977,0.29412 0.9195154,0.41535 1.410563,0.31453 0.3402233,-0.0698 0.6518442,-0.24196 0.870158,-0.4806 0.2183138,-0.23864 0.3419234,-0.54228 0.3451623,-0.84788 0.00368,-0.348 -0.1502389,-0.69543 -0.4210871,-0.9504 -0.2708481,-0.25499 -0.6557198,-0.41482 -1.0528624,-0.43722 -0.3971426,-0.0224 -0.8023082,0.0929 -1.1083787,0.31528 -0.3060707,0.22243 -0.5097725,0.54969 -0.5572507,0.89521 z"
           id="path4568-1-3" />
        <g
           id="g4537" />
      </g>
    </g>
  </g>
</svg>
