<?xml version="1.0" encoding="UTF-8" standalone="no"?>
<!-- Created with Inkscape (http://www.inkscape.org/) -->

<svg
   xmlns:dc="http://purl.org/dc/elements/1.1/"
   xmlns:cc="http://creativecommons.org/ns#"
   xmlns:rdf="http://www.w3.org/1999/02/22-rdf-syntax-ns#"
   xmlns:svg="http://www.w3.org/2000/svg"
   xmlns="http://www.w3.org/2000/svg"
   xmlns:sodipodi="http://sodipodi.sourceforge.net/DTD/sodipodi-0.dtd"
   xmlns:inkscape="http://www.inkscape.org/namespaces/inkscape"
   width="50"
   height="50"
   viewBox="0 0 13.229166 13.229167"
   version="1.1"
   id="svg5050"
   inkscape:version="0.92.1 r15371"
   sodipodi:docname="twitter-logo.svg">
 
  <g
     inkscape:label="Layer 1"
     inkscape:groupmode="layer"
     id="layer1"
     transform="translate(0,-283.77081)">
    <rect
       style="fill:none;fill-rule:evenodd;stroke:#212121;stroke-width:0.39687499;stroke-linecap:round;stroke-miterlimit:4;stroke-dasharray:4.76249994,4.76249994;stroke-opacity:1;stroke-linejoin:round;stroke-dashoffset:0"
       id="rect5595"
       width="10.583333"
       height="10.583333"
       x="1.3363477"
       y="285.33087"
       ry="0.79374999" />
    <path
       style="fill:#212121;fill-opacity:0.93553922;stroke:none;stroke-width:0.01670435"
       d="m 4.6341479,293.98478 c -0.04134,-0.003 -0.22175,-0.0134 -0.400904,-0.0232 -0.316636,-0.0174 -0.568637,-0.0397 -0.681994,-0.0603 l -0.05558,-0.0101 0.114046,-0.0622 c 0.06273,-0.0342 0.354589,-0.1922 0.648586,-0.35105 0.769926,-0.416 1.098145,-0.59964 1.133583,-0.63424 0.02162,-0.0211 0.02657,-0.0385 0.01624,-0.0569 -0.0082,-0.0146 -0.141117,-0.11672 -0.295437,-0.22694 -0.774926,-0.55348 -1.240408,-0.99543 -1.399526,-1.32877 -0.05792,-0.12133 -0.06319,-0.1921 -0.01433,-0.1921 0.01845,0 -0.080322,-0.0455 0,0 0.268235,0.15199 0.750167,0.22712 0.791957,0.18533 -0.147834,-0.16761 0.146734,0.10011 0,0 -0.659216,-0.44976 -0.929179,-0.7622 -1.10018,-1.27328 -0.07056,-0.21089 -0.1162682,-0.45994 -0.09762,-0.53191 l 0.013346,-0.0515 0.183654,0.13653 c 0.296825,0.22065 0.562177,0.3267 0.61474,0.24567 0.01936,-0.0298 0.0281,-0.0171 -0.227599,-0.33263 -0.207785,-0.25643 -0.345073,-0.60818 -0.393894,-1.00919 -0.04419,-0.363 -0.0021,-1.02731 0.06514,-1.02731 0.03957,0 0.248131,0.18059 0.750585,0.64992 0.7515,0.70196 1.233293,1.05126 1.765002,1.27964 0.387925,0.16661 0.764715,0.15135 0.911062,0.0745 0.102369,-0.0537 0.198472,-0.0244 0.103794,-0.28357 -0.04154,-0.11373 -0.04581,-0.14683 -0.04643,-0.35914 -6.35e-4,-0.2203 0.0024,-0.24235 0.05142,-0.38021 0.09241,-0.25959 0.238303,-0.45597 0.452032,-0.60849 0.518883,-0.37026 1.26091,-0.26091 1.648261,0.24292 0.07615,0.0991 0.158978,0.25226 0.192776,0.35661 0.01102,0.034 0.03366,0.0662 0.05031,0.0715 0.01665,0.005 0.246429,-0.0473 0.510614,-0.11675 0.2641851,-0.0695 0.4830691,-0.12363 0.4864101,-0.12029 0.0033,0.003 -0.162861,0.13941 -0.369338,0.30237 -0.2064771,0.16297 -0.3788191,0.30181 -0.3829831,0.30855 -0.0042,0.007 -0.0016,0.0218 0.0056,0.0335 0.01001,0.0162 0.120799,-0.0168 0.4620091,-0.13765 0.246866,-0.0874 0.450855,-0.15694 0.45331,-0.15449 0.0025,0.002 -0.12138,0.12339 -0.275188,0.26873 -0.248512,0.23484 -0.291768,0.284 -0.3884731,0.44142 -0.123137,0.20046 -0.201659,0.38632 -0.240692,0.56971 -0.01537,0.0722 -0.0372,0.32795 -0.05155,0.60382 -0.01499,0.28836 -0.03822,0.55654 -0.05844,0.67483 -0.03666,0.21444 -0.120406,0.48421 -0.197704,0.63686 -0.286707,0.56621 -1.000821,1.24884 -1.655592,1.58261 -0.724673,0.3694 -1.841947,0.63294 -2.823791,0.66607 -0.105655,0.004 -0.225926,0.004 -0.267269,0.001 z"
       id="path5629"
       inkscape:connector-curvature="0"
     />
  </g>
</svg>
